%TF.GenerationSoftware,KiCad,Pcbnew,(6.0.11-0)*%
%TF.CreationDate,2023-01-30T19:10:04-05:00*%
%TF.ProjectId,Nano-Breakout,4e616e6f-2d42-4726-9561-6b6f75742e6b,1.0.0*%
%TF.SameCoordinates,Original*%
%TF.FileFunction,Copper,L2,Bot*%
%TF.FilePolarity,Positive*%
%FSLAX46Y46*%
G04 Gerber Fmt 4.6, Leading zero omitted, Abs format (unit mm)*
G04 Created by KiCad (PCBNEW (6.0.11-0)) date 2023-01-30 19:10:04*
%MOMM*%
%LPD*%
G01*
G04 APERTURE LIST*
%TA.AperFunction,ComponentPad*%
%ADD10R,1.700000X1.700000*%
%TD*%
%TA.AperFunction,ComponentPad*%
%ADD11O,1.700000X1.700000*%
%TD*%
%TA.AperFunction,ComponentPad*%
%ADD12R,1.600000X1.600000*%
%TD*%
%TA.AperFunction,ComponentPad*%
%ADD13O,1.600000X1.600000*%
%TD*%
G04 APERTURE END LIST*
D10*
%TO.P,J102,1,Pin_1*%
%TO.N,/D13*%
X163890000Y-107950000D03*
D11*
%TO.P,J102,2,Pin_2*%
%TO.N,+3V3*%
X163890000Y-105410000D03*
%TO.P,J102,3,Pin_3*%
%TO.N,Net-(A101-Pad18)*%
X163890000Y-102870000D03*
%TO.P,J102,4,Pin_4*%
%TO.N,Net-(A101-Pad19)*%
X163890000Y-100330000D03*
%TO.P,J102,5,Pin_5*%
%TO.N,Net-(A101-Pad20)*%
X163890000Y-97790000D03*
%TO.P,J102,6,Pin_6*%
%TO.N,Net-(A101-Pad21)*%
X163890000Y-95250000D03*
%TO.P,J102,7,Pin_7*%
%TO.N,Net-(A101-Pad22)*%
X163890000Y-92710000D03*
%TO.P,J102,8,Pin_8*%
%TO.N,Net-(A101-Pad23)*%
X163890000Y-90170000D03*
%TO.P,J102,9,Pin_9*%
%TO.N,Net-(A101-Pad24)*%
X163890000Y-87630000D03*
%TO.P,J102,10,Pin_10*%
%TO.N,Net-(A101-Pad25)*%
X163890000Y-85090000D03*
%TO.P,J102,11,Pin_11*%
%TO.N,Net-(A101-Pad26)*%
X163890000Y-82550000D03*
%TO.P,J102,12,Pin_12*%
%TO.N,+5V*%
X163890000Y-80010000D03*
%TO.P,J102,13,Pin_13*%
%TO.N,/~{RESET}*%
X163890000Y-77470000D03*
%TO.P,J102,14,Pin_14*%
%TO.N,GND*%
X163890000Y-74930000D03*
%TO.P,J102,15,Pin_15*%
%TO.N,VCC*%
X163890000Y-72390000D03*
%TD*%
D12*
%TO.P,A101,1,D1/TX*%
%TO.N,Net-(A101-Pad1)*%
X140970000Y-72390000D03*
D13*
%TO.P,A101,2,D0/RX*%
%TO.N,Net-(A101-Pad2)*%
X140970000Y-74930000D03*
%TO.P,A101,3,~{RESET}*%
%TO.N,/~{RESET}*%
X140970000Y-77470000D03*
%TO.P,A101,4,GND*%
%TO.N,GND*%
X140970000Y-80010000D03*
%TO.P,A101,5,D2*%
%TO.N,Net-(A101-Pad5)*%
X140970000Y-82550000D03*
%TO.P,A101,6,D3*%
%TO.N,Net-(A101-Pad6)*%
X140970000Y-85090000D03*
%TO.P,A101,7,D4*%
%TO.N,Net-(A101-Pad7)*%
X140970000Y-87630000D03*
%TO.P,A101,8,D5*%
%TO.N,Net-(A101-Pad8)*%
X140970000Y-90170000D03*
%TO.P,A101,9,D6*%
%TO.N,Net-(A101-Pad9)*%
X140970000Y-92710000D03*
%TO.P,A101,10,D7*%
%TO.N,Net-(A101-Pad10)*%
X140970000Y-95250000D03*
%TO.P,A101,11,D8*%
%TO.N,Net-(A101-Pad11)*%
X140970000Y-97790000D03*
%TO.P,A101,12,D9*%
%TO.N,Net-(A101-Pad12)*%
X140970000Y-100330000D03*
%TO.P,A101,13,D10*%
%TO.N,Net-(A101-Pad13)*%
X140970000Y-102870000D03*
%TO.P,A101,14,D11*%
%TO.N,Net-(A101-Pad14)*%
X140970000Y-105410000D03*
%TO.P,A101,15,D12*%
%TO.N,Net-(A101-Pad15)*%
X140970000Y-107950000D03*
%TO.P,A101,16,D13*%
%TO.N,/D13*%
X156210000Y-107950000D03*
%TO.P,A101,17,3V3*%
%TO.N,+3V3*%
X156210000Y-105410000D03*
%TO.P,A101,18,AREF*%
%TO.N,Net-(A101-Pad18)*%
X156210000Y-102870000D03*
%TO.P,A101,19,A0*%
%TO.N,Net-(A101-Pad19)*%
X156210000Y-100330000D03*
%TO.P,A101,20,A1*%
%TO.N,Net-(A101-Pad20)*%
X156210000Y-97790000D03*
%TO.P,A101,21,A2*%
%TO.N,Net-(A101-Pad21)*%
X156210000Y-95250000D03*
%TO.P,A101,22,A3*%
%TO.N,Net-(A101-Pad22)*%
X156210000Y-92710000D03*
%TO.P,A101,23,A4*%
%TO.N,Net-(A101-Pad23)*%
X156210000Y-90170000D03*
%TO.P,A101,24,A5*%
%TO.N,Net-(A101-Pad24)*%
X156210000Y-87630000D03*
%TO.P,A101,25,A6*%
%TO.N,Net-(A101-Pad25)*%
X156210000Y-85090000D03*
%TO.P,A101,26,A7*%
%TO.N,Net-(A101-Pad26)*%
X156210000Y-82550000D03*
%TO.P,A101,27,+5V*%
%TO.N,+5V*%
X156210000Y-80010000D03*
%TO.P,A101,28,~{RESET}*%
%TO.N,/~{RESET}*%
X156210000Y-77470000D03*
%TO.P,A101,29,GND*%
%TO.N,GND*%
X156210000Y-74930000D03*
%TO.P,A101,30,VIN*%
%TO.N,VCC*%
X156210000Y-72390000D03*
%TD*%
D10*
%TO.P,J101,1,Pin_1*%
%TO.N,Net-(A101-Pad1)*%
X133350000Y-72390000D03*
D11*
%TO.P,J101,2,Pin_2*%
%TO.N,Net-(A101-Pad2)*%
X133350000Y-74930000D03*
%TO.P,J101,3,Pin_3*%
%TO.N,/~{RESET}*%
X133350000Y-77470000D03*
%TO.P,J101,4,Pin_4*%
%TO.N,GND*%
X133350000Y-80010000D03*
%TO.P,J101,5,Pin_5*%
%TO.N,Net-(A101-Pad5)*%
X133350000Y-82550000D03*
%TO.P,J101,6,Pin_6*%
%TO.N,Net-(A101-Pad6)*%
X133350000Y-85090000D03*
%TO.P,J101,7,Pin_7*%
%TO.N,Net-(A101-Pad7)*%
X133350000Y-87630000D03*
%TO.P,J101,8,Pin_8*%
%TO.N,Net-(A101-Pad8)*%
X133350000Y-90170000D03*
%TO.P,J101,9,Pin_9*%
%TO.N,Net-(A101-Pad9)*%
X133350000Y-92710000D03*
%TO.P,J101,10,Pin_10*%
%TO.N,Net-(A101-Pad10)*%
X133350000Y-95250000D03*
%TO.P,J101,11,Pin_11*%
%TO.N,Net-(A101-Pad11)*%
X133350000Y-97790000D03*
%TO.P,J101,12,Pin_12*%
%TO.N,Net-(A101-Pad12)*%
X133350000Y-100330000D03*
%TO.P,J101,13,Pin_13*%
%TO.N,Net-(A101-Pad13)*%
X133350000Y-102870000D03*
%TO.P,J101,14,Pin_14*%
%TO.N,Net-(A101-Pad14)*%
X133350000Y-105410000D03*
%TO.P,J101,15,Pin_15*%
%TO.N,Net-(A101-Pad15)*%
X133350000Y-107950000D03*
%TD*%
%TA.AperFunction,Conductor*%
%TO.N,GND*%
G36*
X139807852Y-71013502D02*
G01*
X139854345Y-71067158D01*
X139864449Y-71137432D01*
X139834955Y-71202012D01*
X139815297Y-71220325D01*
X139806739Y-71226739D01*
X139719385Y-71343295D01*
X139668255Y-71479684D01*
X139661500Y-71541866D01*
X139661500Y-73238134D01*
X139668255Y-73300316D01*
X139719385Y-73436705D01*
X139806739Y-73553261D01*
X139923295Y-73640615D01*
X140059684Y-73691745D01*
X140070474Y-73692917D01*
X140072606Y-73693803D01*
X140075222Y-73694425D01*
X140075121Y-73694848D01*
X140136035Y-73720155D01*
X140176463Y-73778517D01*
X140178922Y-73849471D01*
X140142629Y-73910490D01*
X140133969Y-73917489D01*
X140130207Y-73920646D01*
X140125700Y-73923802D01*
X139963802Y-74085700D01*
X139960645Y-74090208D01*
X139960643Y-74090211D01*
X139913142Y-74158050D01*
X139832477Y-74273251D01*
X139830154Y-74278233D01*
X139830151Y-74278238D01*
X139747828Y-74454783D01*
X139735716Y-74480757D01*
X139734294Y-74486065D01*
X139734293Y-74486067D01*
X139683400Y-74676000D01*
X139676457Y-74701913D01*
X139656502Y-74930000D01*
X139676457Y-75158087D01*
X139677881Y-75163400D01*
X139677881Y-75163402D01*
X139691155Y-75212939D01*
X139735716Y-75379243D01*
X139738039Y-75384224D01*
X139738039Y-75384225D01*
X139830151Y-75581762D01*
X139830154Y-75581767D01*
X139832477Y-75586749D01*
X139867157Y-75636277D01*
X139939078Y-75738990D01*
X139963802Y-75774300D01*
X140125700Y-75936198D01*
X140130208Y-75939355D01*
X140130211Y-75939357D01*
X140179931Y-75974171D01*
X140313251Y-76067523D01*
X140318233Y-76069846D01*
X140318238Y-76069849D01*
X140352457Y-76085805D01*
X140405742Y-76132722D01*
X140425203Y-76200999D01*
X140404661Y-76268959D01*
X140352457Y-76314195D01*
X140318238Y-76330151D01*
X140318233Y-76330154D01*
X140313251Y-76332477D01*
X140208389Y-76405902D01*
X140130211Y-76460643D01*
X140130208Y-76460645D01*
X140125700Y-76463802D01*
X139963802Y-76625700D01*
X139960645Y-76630208D01*
X139960643Y-76630211D01*
X139928491Y-76676129D01*
X139832477Y-76813251D01*
X139830154Y-76818233D01*
X139830151Y-76818238D01*
X139747908Y-76994610D01*
X139735716Y-77020757D01*
X139734294Y-77026065D01*
X139734293Y-77026067D01*
X139682407Y-77219707D01*
X139676457Y-77241913D01*
X139656502Y-77470000D01*
X139676457Y-77698087D01*
X139677881Y-77703400D01*
X139677881Y-77703402D01*
X139725851Y-77882425D01*
X139735716Y-77919243D01*
X139738039Y-77924224D01*
X139738039Y-77924225D01*
X139830151Y-78121762D01*
X139830154Y-78121767D01*
X139832477Y-78126749D01*
X139892389Y-78212312D01*
X139954003Y-78300305D01*
X139963802Y-78314300D01*
X140125700Y-78476198D01*
X140130208Y-78479355D01*
X140130211Y-78479357D01*
X140170445Y-78507529D01*
X140313251Y-78607523D01*
X140318233Y-78609846D01*
X140318238Y-78609849D01*
X140353049Y-78626081D01*
X140406334Y-78672998D01*
X140425795Y-78741275D01*
X140405253Y-78809235D01*
X140353049Y-78854471D01*
X140318489Y-78870586D01*
X140308993Y-78876069D01*
X140130533Y-79001028D01*
X140122125Y-79008084D01*
X139968084Y-79162125D01*
X139961028Y-79170533D01*
X139836069Y-79348993D01*
X139830586Y-79358489D01*
X139738510Y-79555947D01*
X139734764Y-79566239D01*
X139688606Y-79738503D01*
X139688942Y-79752599D01*
X139696884Y-79756000D01*
X142237967Y-79756000D01*
X142251498Y-79752027D01*
X142252727Y-79743478D01*
X142205236Y-79566239D01*
X142201490Y-79555947D01*
X142109414Y-79358489D01*
X142103931Y-79348993D01*
X141978972Y-79170533D01*
X141971916Y-79162125D01*
X141817875Y-79008084D01*
X141809467Y-79001028D01*
X141631007Y-78876069D01*
X141621511Y-78870586D01*
X141586951Y-78854471D01*
X141533666Y-78807554D01*
X141514205Y-78739277D01*
X141534747Y-78671317D01*
X141586951Y-78626081D01*
X141621762Y-78609849D01*
X141621767Y-78609846D01*
X141626749Y-78607523D01*
X141769555Y-78507529D01*
X141809789Y-78479357D01*
X141809792Y-78479355D01*
X141814300Y-78476198D01*
X141976198Y-78314300D01*
X141985998Y-78300305D01*
X142047611Y-78212312D01*
X142107523Y-78126749D01*
X142109846Y-78121767D01*
X142109849Y-78121762D01*
X142201961Y-77924225D01*
X142201961Y-77924224D01*
X142204284Y-77919243D01*
X142214150Y-77882425D01*
X142262119Y-77703402D01*
X142262119Y-77703400D01*
X142263543Y-77698087D01*
X142283498Y-77470000D01*
X142263543Y-77241913D01*
X142257593Y-77219707D01*
X142205707Y-77026067D01*
X142205706Y-77026065D01*
X142204284Y-77020757D01*
X142192092Y-76994610D01*
X142109849Y-76818238D01*
X142109846Y-76818233D01*
X142107523Y-76813251D01*
X142011509Y-76676129D01*
X141979357Y-76630211D01*
X141979355Y-76630208D01*
X141976198Y-76625700D01*
X141814300Y-76463802D01*
X141809792Y-76460645D01*
X141809789Y-76460643D01*
X141731611Y-76405902D01*
X141626749Y-76332477D01*
X141621767Y-76330154D01*
X141621762Y-76330151D01*
X141587543Y-76314195D01*
X141534258Y-76267278D01*
X141514797Y-76199001D01*
X141535339Y-76131041D01*
X141587543Y-76085805D01*
X141621762Y-76069849D01*
X141621767Y-76069846D01*
X141626749Y-76067523D01*
X141760069Y-75974171D01*
X141809789Y-75939357D01*
X141809792Y-75939355D01*
X141814300Y-75936198D01*
X141976198Y-75774300D01*
X142000923Y-75738990D01*
X142072843Y-75636277D01*
X142107523Y-75586749D01*
X142109846Y-75581767D01*
X142109849Y-75581762D01*
X142201961Y-75384225D01*
X142201961Y-75384224D01*
X142204284Y-75379243D01*
X142248846Y-75212939D01*
X142262119Y-75163402D01*
X142262119Y-75163400D01*
X142263543Y-75158087D01*
X142283498Y-74930000D01*
X142263543Y-74701913D01*
X142256600Y-74676000D01*
X142205707Y-74486067D01*
X142205706Y-74486065D01*
X142204284Y-74480757D01*
X142192172Y-74454783D01*
X142109849Y-74278238D01*
X142109846Y-74278233D01*
X142107523Y-74273251D01*
X142026858Y-74158050D01*
X141979357Y-74090211D01*
X141979355Y-74090208D01*
X141976198Y-74085700D01*
X141814300Y-73923802D01*
X141809789Y-73920643D01*
X141805576Y-73917108D01*
X141806527Y-73915974D01*
X141766529Y-73865929D01*
X141759224Y-73795310D01*
X141791258Y-73731951D01*
X141852462Y-73695970D01*
X141869517Y-73692918D01*
X141880316Y-73691745D01*
X142016705Y-73640615D01*
X142133261Y-73553261D01*
X142220615Y-73436705D01*
X142271745Y-73300316D01*
X142278500Y-73238134D01*
X142278500Y-71541866D01*
X142271745Y-71479684D01*
X142220615Y-71343295D01*
X142133261Y-71226739D01*
X142124704Y-71220326D01*
X142123682Y-71218959D01*
X142119731Y-71215008D01*
X142120301Y-71214438D01*
X142082189Y-71163468D01*
X142077163Y-71092649D01*
X142111222Y-71030356D01*
X142173553Y-70996365D01*
X142200269Y-70993500D01*
X155540279Y-70993500D01*
X155608400Y-71013502D01*
X155654893Y-71067158D01*
X155664997Y-71137432D01*
X155635503Y-71202012D01*
X155593529Y-71233695D01*
X155558238Y-71250151D01*
X155558233Y-71250154D01*
X155553251Y-71252477D01*
X155505221Y-71286108D01*
X155370211Y-71380643D01*
X155370208Y-71380645D01*
X155365700Y-71383802D01*
X155203802Y-71545700D01*
X155200645Y-71550208D01*
X155200643Y-71550211D01*
X155168491Y-71596129D01*
X155072477Y-71733251D01*
X155070154Y-71738233D01*
X155070151Y-71738238D01*
X154987908Y-71914610D01*
X154975716Y-71940757D01*
X154974294Y-71946065D01*
X154974293Y-71946067D01*
X154922407Y-72139707D01*
X154916457Y-72161913D01*
X154896502Y-72390000D01*
X154916457Y-72618087D01*
X154917881Y-72623400D01*
X154917881Y-72623402D01*
X154965851Y-72802425D01*
X154975716Y-72839243D01*
X154978039Y-72844224D01*
X154978039Y-72844225D01*
X155070151Y-73041762D01*
X155070154Y-73041767D01*
X155072477Y-73046749D01*
X155132389Y-73132312D01*
X155194003Y-73220305D01*
X155203802Y-73234300D01*
X155365700Y-73396198D01*
X155370208Y-73399355D01*
X155370211Y-73399357D01*
X155410445Y-73427529D01*
X155553251Y-73527523D01*
X155558233Y-73529846D01*
X155558238Y-73529849D01*
X155593049Y-73546081D01*
X155646334Y-73592998D01*
X155665795Y-73661275D01*
X155645253Y-73729235D01*
X155593049Y-73774471D01*
X155558489Y-73790586D01*
X155548993Y-73796069D01*
X155370533Y-73921028D01*
X155362125Y-73928084D01*
X155208084Y-74082125D01*
X155201028Y-74090533D01*
X155076069Y-74268993D01*
X155070586Y-74278489D01*
X154978510Y-74475947D01*
X154974764Y-74486239D01*
X154928606Y-74658503D01*
X154928942Y-74672599D01*
X154936884Y-74676000D01*
X157477967Y-74676000D01*
X157491498Y-74672027D01*
X157492727Y-74663478D01*
X157445236Y-74486239D01*
X157441490Y-74475947D01*
X157349414Y-74278489D01*
X157343931Y-74268993D01*
X157218972Y-74090533D01*
X157211916Y-74082125D01*
X157057875Y-73928084D01*
X157049467Y-73921028D01*
X156871007Y-73796069D01*
X156861511Y-73790586D01*
X156826951Y-73774471D01*
X156773666Y-73727554D01*
X156754205Y-73659277D01*
X156774747Y-73591317D01*
X156826951Y-73546081D01*
X156861762Y-73529849D01*
X156861767Y-73529846D01*
X156866749Y-73527523D01*
X157009555Y-73427529D01*
X157049789Y-73399357D01*
X157049792Y-73399355D01*
X157054300Y-73396198D01*
X157216198Y-73234300D01*
X157225998Y-73220305D01*
X157287611Y-73132312D01*
X157347523Y-73046749D01*
X157349846Y-73041767D01*
X157349849Y-73041762D01*
X157441961Y-72844225D01*
X157441961Y-72844224D01*
X157444284Y-72839243D01*
X157454150Y-72802425D01*
X157502119Y-72623402D01*
X157502119Y-72623400D01*
X157503543Y-72618087D01*
X157523498Y-72390000D01*
X157503543Y-72161913D01*
X157497593Y-72139707D01*
X157445707Y-71946067D01*
X157445706Y-71946065D01*
X157444284Y-71940757D01*
X157432092Y-71914610D01*
X157349849Y-71738238D01*
X157349846Y-71738233D01*
X157347523Y-71733251D01*
X157251509Y-71596129D01*
X157219357Y-71550211D01*
X157219355Y-71550208D01*
X157216198Y-71545700D01*
X157054300Y-71383802D01*
X157049792Y-71380645D01*
X157049789Y-71380643D01*
X156914779Y-71286108D01*
X156866749Y-71252477D01*
X156861767Y-71250154D01*
X156861762Y-71250151D01*
X156826471Y-71233695D01*
X156773186Y-71186778D01*
X156753725Y-71118500D01*
X156774267Y-71050540D01*
X156828290Y-71004475D01*
X156879721Y-70993500D01*
X163115501Y-70993500D01*
X163183622Y-71013502D01*
X163230115Y-71067158D01*
X163240219Y-71137432D01*
X163210725Y-71202012D01*
X163173683Y-71231262D01*
X163163607Y-71236507D01*
X163159474Y-71239610D01*
X163159471Y-71239612D01*
X163010180Y-71351703D01*
X162984965Y-71370635D01*
X162830629Y-71532138D01*
X162827715Y-71536410D01*
X162827714Y-71536411D01*
X162818300Y-71550211D01*
X162704743Y-71716680D01*
X162610688Y-71919305D01*
X162550989Y-72134570D01*
X162527251Y-72356695D01*
X162527548Y-72361848D01*
X162527548Y-72361851D01*
X162529171Y-72390000D01*
X162540110Y-72579715D01*
X162541247Y-72584761D01*
X162541248Y-72584767D01*
X162562275Y-72678069D01*
X162589222Y-72797639D01*
X162673266Y-73004616D01*
X162789987Y-73195088D01*
X162936250Y-73363938D01*
X163108126Y-73506632D01*
X163175635Y-73546081D01*
X163181955Y-73549774D01*
X163230679Y-73601412D01*
X163243750Y-73671195D01*
X163217019Y-73736967D01*
X163176562Y-73770327D01*
X163168457Y-73774546D01*
X163159738Y-73780036D01*
X162989433Y-73907905D01*
X162981726Y-73914748D01*
X162834590Y-74068717D01*
X162828104Y-74076727D01*
X162708098Y-74252649D01*
X162703000Y-74261623D01*
X162613338Y-74454783D01*
X162609775Y-74464470D01*
X162554389Y-74664183D01*
X162555912Y-74672607D01*
X162568292Y-74676000D01*
X164018000Y-74676000D01*
X164086121Y-74696002D01*
X164132614Y-74749658D01*
X164144000Y-74802000D01*
X164144000Y-75058000D01*
X164123998Y-75126121D01*
X164070342Y-75172614D01*
X164018000Y-75184000D01*
X162573225Y-75184000D01*
X162559694Y-75187973D01*
X162558257Y-75197966D01*
X162588565Y-75332446D01*
X162591645Y-75342275D01*
X162671770Y-75539603D01*
X162676413Y-75548794D01*
X162787694Y-75730388D01*
X162793777Y-75738699D01*
X162933213Y-75899667D01*
X162940580Y-75906883D01*
X163104434Y-76042916D01*
X163112881Y-76048831D01*
X163181969Y-76089203D01*
X163230693Y-76140842D01*
X163243764Y-76210625D01*
X163217033Y-76276396D01*
X163176584Y-76309752D01*
X163163607Y-76316507D01*
X163159474Y-76319610D01*
X163159471Y-76319612D01*
X163138132Y-76335634D01*
X162984965Y-76450635D01*
X162830629Y-76612138D01*
X162827715Y-76616410D01*
X162827714Y-76616411D01*
X162818300Y-76630211D01*
X162704743Y-76796680D01*
X162610688Y-76999305D01*
X162550989Y-77214570D01*
X162527251Y-77436695D01*
X162527548Y-77441848D01*
X162527548Y-77441851D01*
X162533011Y-77536590D01*
X162540110Y-77659715D01*
X162541247Y-77664761D01*
X162541248Y-77664767D01*
X162561119Y-77752939D01*
X162589222Y-77877639D01*
X162673266Y-78084616D01*
X162675965Y-78089020D01*
X162787291Y-78270688D01*
X162789987Y-78275088D01*
X162936250Y-78443938D01*
X163108126Y-78586632D01*
X163175163Y-78625805D01*
X163181445Y-78629476D01*
X163230169Y-78681114D01*
X163243240Y-78750897D01*
X163216509Y-78816669D01*
X163176055Y-78850027D01*
X163163607Y-78856507D01*
X163159474Y-78859610D01*
X163159471Y-78859612D01*
X163135247Y-78877800D01*
X162984965Y-78990635D01*
X162830629Y-79152138D01*
X162827715Y-79156410D01*
X162827714Y-79156411D01*
X162818300Y-79170211D01*
X162704743Y-79336680D01*
X162610688Y-79539305D01*
X162550989Y-79754570D01*
X162527251Y-79976695D01*
X162527548Y-79981848D01*
X162527548Y-79981851D01*
X162529171Y-80010000D01*
X162540110Y-80199715D01*
X162541247Y-80204761D01*
X162541248Y-80204767D01*
X162558645Y-80281962D01*
X162589222Y-80417639D01*
X162673266Y-80624616D01*
X162723863Y-80707183D01*
X162766690Y-80777070D01*
X162789987Y-80815088D01*
X162936250Y-80983938D01*
X163108126Y-81126632D01*
X163174691Y-81165529D01*
X163181445Y-81169476D01*
X163230169Y-81221114D01*
X163243240Y-81290897D01*
X163216509Y-81356669D01*
X163176055Y-81390027D01*
X163163607Y-81396507D01*
X163159474Y-81399610D01*
X163159471Y-81399612D01*
X163138132Y-81415634D01*
X162984965Y-81530635D01*
X162830629Y-81692138D01*
X162827715Y-81696410D01*
X162827714Y-81696411D01*
X162818300Y-81710211D01*
X162704743Y-81876680D01*
X162610688Y-82079305D01*
X162550989Y-82294570D01*
X162527251Y-82516695D01*
X162527548Y-82521848D01*
X162527548Y-82521851D01*
X162533011Y-82616590D01*
X162540110Y-82739715D01*
X162541247Y-82744761D01*
X162541248Y-82744767D01*
X162561119Y-82832939D01*
X162589222Y-82957639D01*
X162673266Y-83164616D01*
X162675965Y-83169020D01*
X162787291Y-83350688D01*
X162789987Y-83355088D01*
X162936250Y-83523938D01*
X163108126Y-83666632D01*
X163175163Y-83705805D01*
X163181445Y-83709476D01*
X163230169Y-83761114D01*
X163243240Y-83830897D01*
X163216509Y-83896669D01*
X163176055Y-83930027D01*
X163163607Y-83936507D01*
X163159474Y-83939610D01*
X163159471Y-83939612D01*
X163138132Y-83955634D01*
X162984965Y-84070635D01*
X162830629Y-84232138D01*
X162827715Y-84236410D01*
X162827714Y-84236411D01*
X162818300Y-84250211D01*
X162704743Y-84416680D01*
X162610688Y-84619305D01*
X162550989Y-84834570D01*
X162527251Y-85056695D01*
X162527548Y-85061848D01*
X162527548Y-85061851D01*
X162533011Y-85156590D01*
X162540110Y-85279715D01*
X162541247Y-85284761D01*
X162541248Y-85284767D01*
X162561119Y-85372939D01*
X162589222Y-85497639D01*
X162673266Y-85704616D01*
X162675965Y-85709020D01*
X162787291Y-85890688D01*
X162789987Y-85895088D01*
X162936250Y-86063938D01*
X163108126Y-86206632D01*
X163175163Y-86245805D01*
X163181445Y-86249476D01*
X163230169Y-86301114D01*
X163243240Y-86370897D01*
X163216509Y-86436669D01*
X163176055Y-86470027D01*
X163163607Y-86476507D01*
X163159474Y-86479610D01*
X163159471Y-86479612D01*
X163138132Y-86495634D01*
X162984965Y-86610635D01*
X162830629Y-86772138D01*
X162827715Y-86776410D01*
X162827714Y-86776411D01*
X162818300Y-86790211D01*
X162704743Y-86956680D01*
X162610688Y-87159305D01*
X162550989Y-87374570D01*
X162527251Y-87596695D01*
X162527548Y-87601848D01*
X162527548Y-87601851D01*
X162533011Y-87696590D01*
X162540110Y-87819715D01*
X162541247Y-87824761D01*
X162541248Y-87824767D01*
X162561119Y-87912939D01*
X162589222Y-88037639D01*
X162673266Y-88244616D01*
X162675965Y-88249020D01*
X162787291Y-88430688D01*
X162789987Y-88435088D01*
X162936250Y-88603938D01*
X163108126Y-88746632D01*
X163175163Y-88785805D01*
X163181445Y-88789476D01*
X163230169Y-88841114D01*
X163243240Y-88910897D01*
X163216509Y-88976669D01*
X163176055Y-89010027D01*
X163163607Y-89016507D01*
X163159474Y-89019610D01*
X163159471Y-89019612D01*
X163138132Y-89035634D01*
X162984965Y-89150635D01*
X162830629Y-89312138D01*
X162827715Y-89316410D01*
X162827714Y-89316411D01*
X162818300Y-89330211D01*
X162704743Y-89496680D01*
X162610688Y-89699305D01*
X162550989Y-89914570D01*
X162527251Y-90136695D01*
X162527548Y-90141848D01*
X162527548Y-90141851D01*
X162533011Y-90236590D01*
X162540110Y-90359715D01*
X162541247Y-90364761D01*
X162541248Y-90364767D01*
X162561119Y-90452939D01*
X162589222Y-90577639D01*
X162673266Y-90784616D01*
X162675965Y-90789020D01*
X162787291Y-90970688D01*
X162789987Y-90975088D01*
X162936250Y-91143938D01*
X163108126Y-91286632D01*
X163175163Y-91325805D01*
X163181445Y-91329476D01*
X163230169Y-91381114D01*
X163243240Y-91450897D01*
X163216509Y-91516669D01*
X163176055Y-91550027D01*
X163163607Y-91556507D01*
X163159474Y-91559610D01*
X163159471Y-91559612D01*
X163138132Y-91575634D01*
X162984965Y-91690635D01*
X162830629Y-91852138D01*
X162827715Y-91856410D01*
X162827714Y-91856411D01*
X162818300Y-91870211D01*
X162704743Y-92036680D01*
X162610688Y-92239305D01*
X162550989Y-92454570D01*
X162527251Y-92676695D01*
X162527548Y-92681848D01*
X162527548Y-92681851D01*
X162533011Y-92776590D01*
X162540110Y-92899715D01*
X162541247Y-92904761D01*
X162541248Y-92904767D01*
X162561119Y-92992939D01*
X162589222Y-93117639D01*
X162673266Y-93324616D01*
X162675965Y-93329020D01*
X162787291Y-93510688D01*
X162789987Y-93515088D01*
X162936250Y-93683938D01*
X163108126Y-93826632D01*
X163175163Y-93865805D01*
X163181445Y-93869476D01*
X163230169Y-93921114D01*
X163243240Y-93990897D01*
X163216509Y-94056669D01*
X163176055Y-94090027D01*
X163163607Y-94096507D01*
X163159474Y-94099610D01*
X163159471Y-94099612D01*
X163138132Y-94115634D01*
X162984965Y-94230635D01*
X162830629Y-94392138D01*
X162827715Y-94396410D01*
X162827714Y-94396411D01*
X162818300Y-94410211D01*
X162704743Y-94576680D01*
X162610688Y-94779305D01*
X162550989Y-94994570D01*
X162527251Y-95216695D01*
X162527548Y-95221848D01*
X162527548Y-95221851D01*
X162533011Y-95316590D01*
X162540110Y-95439715D01*
X162541247Y-95444761D01*
X162541248Y-95444767D01*
X162561119Y-95532939D01*
X162589222Y-95657639D01*
X162673266Y-95864616D01*
X162675965Y-95869020D01*
X162787291Y-96050688D01*
X162789987Y-96055088D01*
X162936250Y-96223938D01*
X163108126Y-96366632D01*
X163175163Y-96405805D01*
X163181445Y-96409476D01*
X163230169Y-96461114D01*
X163243240Y-96530897D01*
X163216509Y-96596669D01*
X163176055Y-96630027D01*
X163163607Y-96636507D01*
X163159474Y-96639610D01*
X163159471Y-96639612D01*
X163138132Y-96655634D01*
X162984965Y-96770635D01*
X162830629Y-96932138D01*
X162827715Y-96936410D01*
X162827714Y-96936411D01*
X162818300Y-96950211D01*
X162704743Y-97116680D01*
X162610688Y-97319305D01*
X162550989Y-97534570D01*
X162527251Y-97756695D01*
X162527548Y-97761848D01*
X162527548Y-97761851D01*
X162533011Y-97856590D01*
X162540110Y-97979715D01*
X162541247Y-97984761D01*
X162541248Y-97984767D01*
X162561119Y-98072939D01*
X162589222Y-98197639D01*
X162673266Y-98404616D01*
X162675965Y-98409020D01*
X162787291Y-98590688D01*
X162789987Y-98595088D01*
X162936250Y-98763938D01*
X163108126Y-98906632D01*
X163175163Y-98945805D01*
X163181445Y-98949476D01*
X163230169Y-99001114D01*
X163243240Y-99070897D01*
X163216509Y-99136669D01*
X163176055Y-99170027D01*
X163163607Y-99176507D01*
X163159474Y-99179610D01*
X163159471Y-99179612D01*
X163138132Y-99195634D01*
X162984965Y-99310635D01*
X162830629Y-99472138D01*
X162827715Y-99476410D01*
X162827714Y-99476411D01*
X162818300Y-99490211D01*
X162704743Y-99656680D01*
X162610688Y-99859305D01*
X162550989Y-100074570D01*
X162527251Y-100296695D01*
X162527548Y-100301848D01*
X162527548Y-100301851D01*
X162533011Y-100396590D01*
X162540110Y-100519715D01*
X162541247Y-100524761D01*
X162541248Y-100524767D01*
X162561119Y-100612939D01*
X162589222Y-100737639D01*
X162673266Y-100944616D01*
X162675965Y-100949020D01*
X162787291Y-101130688D01*
X162789987Y-101135088D01*
X162936250Y-101303938D01*
X163108126Y-101446632D01*
X163175163Y-101485805D01*
X163181445Y-101489476D01*
X163230169Y-101541114D01*
X163243240Y-101610897D01*
X163216509Y-101676669D01*
X163176055Y-101710027D01*
X163163607Y-101716507D01*
X163159474Y-101719610D01*
X163159471Y-101719612D01*
X163138132Y-101735634D01*
X162984965Y-101850635D01*
X162830629Y-102012138D01*
X162827715Y-102016410D01*
X162827714Y-102016411D01*
X162818300Y-102030211D01*
X162704743Y-102196680D01*
X162610688Y-102399305D01*
X162550989Y-102614570D01*
X162527251Y-102836695D01*
X162527548Y-102841848D01*
X162527548Y-102841851D01*
X162533011Y-102936590D01*
X162540110Y-103059715D01*
X162541247Y-103064761D01*
X162541248Y-103064767D01*
X162561119Y-103152939D01*
X162589222Y-103277639D01*
X162673266Y-103484616D01*
X162675965Y-103489020D01*
X162787291Y-103670688D01*
X162789987Y-103675088D01*
X162936250Y-103843938D01*
X163108126Y-103986632D01*
X163175163Y-104025805D01*
X163181445Y-104029476D01*
X163230169Y-104081114D01*
X163243240Y-104150897D01*
X163216509Y-104216669D01*
X163176055Y-104250027D01*
X163163607Y-104256507D01*
X163159474Y-104259610D01*
X163159471Y-104259612D01*
X163138132Y-104275634D01*
X162984965Y-104390635D01*
X162830629Y-104552138D01*
X162827715Y-104556410D01*
X162827714Y-104556411D01*
X162818300Y-104570211D01*
X162704743Y-104736680D01*
X162610688Y-104939305D01*
X162550989Y-105154570D01*
X162527251Y-105376695D01*
X162527548Y-105381848D01*
X162527548Y-105381851D01*
X162533011Y-105476590D01*
X162540110Y-105599715D01*
X162541247Y-105604761D01*
X162541248Y-105604767D01*
X162561119Y-105692939D01*
X162589222Y-105817639D01*
X162673266Y-106024616D01*
X162675965Y-106029020D01*
X162787291Y-106210688D01*
X162789987Y-106215088D01*
X162936250Y-106383938D01*
X162940230Y-106387242D01*
X162944981Y-106391187D01*
X162984616Y-106450090D01*
X162986113Y-106521071D01*
X162948997Y-106581593D01*
X162908725Y-106606112D01*
X162820095Y-106639338D01*
X162793295Y-106649385D01*
X162676739Y-106736739D01*
X162589385Y-106853295D01*
X162538255Y-106989684D01*
X162531500Y-107051866D01*
X162531500Y-108848134D01*
X162538255Y-108910316D01*
X162589385Y-109046705D01*
X162594770Y-109053890D01*
X162594771Y-109053892D01*
X162663004Y-109144935D01*
X162687852Y-109211442D01*
X162672799Y-109280824D01*
X162622625Y-109331054D01*
X162562178Y-109346500D01*
X156879721Y-109346500D01*
X156811600Y-109326498D01*
X156765107Y-109272842D01*
X156755003Y-109202568D01*
X156784497Y-109137988D01*
X156826471Y-109106305D01*
X156861762Y-109089849D01*
X156861767Y-109089846D01*
X156866749Y-109087523D01*
X157009555Y-108987529D01*
X157049789Y-108959357D01*
X157049792Y-108959355D01*
X157054300Y-108956198D01*
X157216198Y-108794300D01*
X157240923Y-108758990D01*
X157312843Y-108656277D01*
X157347523Y-108606749D01*
X157349846Y-108601767D01*
X157349849Y-108601762D01*
X157441961Y-108404225D01*
X157441961Y-108404224D01*
X157444284Y-108399243D01*
X157488846Y-108232939D01*
X157502119Y-108183402D01*
X157502119Y-108183400D01*
X157503543Y-108178087D01*
X157523498Y-107950000D01*
X157503543Y-107721913D01*
X157502119Y-107716598D01*
X157445707Y-107506067D01*
X157445706Y-107506065D01*
X157444284Y-107500757D01*
X157434281Y-107479305D01*
X157349849Y-107298238D01*
X157349846Y-107298233D01*
X157347523Y-107293251D01*
X157266858Y-107178050D01*
X157219357Y-107110211D01*
X157219355Y-107110208D01*
X157216198Y-107105700D01*
X157054300Y-106943802D01*
X157049792Y-106940645D01*
X157049789Y-106940643D01*
X156914780Y-106846109D01*
X156866749Y-106812477D01*
X156861767Y-106810154D01*
X156861762Y-106810151D01*
X156827543Y-106794195D01*
X156774258Y-106747278D01*
X156754797Y-106679001D01*
X156775339Y-106611041D01*
X156827543Y-106565805D01*
X156861762Y-106549849D01*
X156861767Y-106549846D01*
X156866749Y-106547523D01*
X157004351Y-106451173D01*
X157049789Y-106419357D01*
X157049792Y-106419355D01*
X157054300Y-106416198D01*
X157216198Y-106254300D01*
X157225998Y-106240305D01*
X157287611Y-106152312D01*
X157347523Y-106066749D01*
X157349846Y-106061767D01*
X157349849Y-106061762D01*
X157441961Y-105864225D01*
X157441961Y-105864224D01*
X157444284Y-105859243D01*
X157454150Y-105822425D01*
X157502119Y-105643402D01*
X157502119Y-105643400D01*
X157503543Y-105638087D01*
X157523498Y-105410000D01*
X157503543Y-105181913D01*
X157497593Y-105159707D01*
X157445707Y-104966067D01*
X157445706Y-104966065D01*
X157444284Y-104960757D01*
X157432092Y-104934610D01*
X157349849Y-104758238D01*
X157349846Y-104758233D01*
X157347523Y-104753251D01*
X157251509Y-104616129D01*
X157219357Y-104570211D01*
X157219355Y-104570208D01*
X157216198Y-104565700D01*
X157054300Y-104403802D01*
X157049792Y-104400645D01*
X157049789Y-104400643D01*
X156971611Y-104345902D01*
X156866749Y-104272477D01*
X156861767Y-104270154D01*
X156861762Y-104270151D01*
X156827543Y-104254195D01*
X156774258Y-104207278D01*
X156754797Y-104139001D01*
X156775339Y-104071041D01*
X156827543Y-104025805D01*
X156861762Y-104009849D01*
X156861767Y-104009846D01*
X156866749Y-104007523D01*
X157009555Y-103907529D01*
X157049789Y-103879357D01*
X157049792Y-103879355D01*
X157054300Y-103876198D01*
X157216198Y-103714300D01*
X157225998Y-103700305D01*
X157287611Y-103612312D01*
X157347523Y-103526749D01*
X157349846Y-103521767D01*
X157349849Y-103521762D01*
X157441961Y-103324225D01*
X157441961Y-103324224D01*
X157444284Y-103319243D01*
X157454150Y-103282425D01*
X157502119Y-103103402D01*
X157502119Y-103103400D01*
X157503543Y-103098087D01*
X157523498Y-102870000D01*
X157503543Y-102641913D01*
X157497593Y-102619707D01*
X157445707Y-102426067D01*
X157445706Y-102426065D01*
X157444284Y-102420757D01*
X157432092Y-102394610D01*
X157349849Y-102218238D01*
X157349846Y-102218233D01*
X157347523Y-102213251D01*
X157251509Y-102076129D01*
X157219357Y-102030211D01*
X157219355Y-102030208D01*
X157216198Y-102025700D01*
X157054300Y-101863802D01*
X157049792Y-101860645D01*
X157049789Y-101860643D01*
X156971611Y-101805902D01*
X156866749Y-101732477D01*
X156861767Y-101730154D01*
X156861762Y-101730151D01*
X156827543Y-101714195D01*
X156774258Y-101667278D01*
X156754797Y-101599001D01*
X156775339Y-101531041D01*
X156827543Y-101485805D01*
X156861762Y-101469849D01*
X156861767Y-101469846D01*
X156866749Y-101467523D01*
X157009555Y-101367529D01*
X157049789Y-101339357D01*
X157049792Y-101339355D01*
X157054300Y-101336198D01*
X157216198Y-101174300D01*
X157225998Y-101160305D01*
X157287611Y-101072312D01*
X157347523Y-100986749D01*
X157349846Y-100981767D01*
X157349849Y-100981762D01*
X157441961Y-100784225D01*
X157441961Y-100784224D01*
X157444284Y-100779243D01*
X157454150Y-100742425D01*
X157502119Y-100563402D01*
X157502119Y-100563400D01*
X157503543Y-100558087D01*
X157523498Y-100330000D01*
X157503543Y-100101913D01*
X157497593Y-100079707D01*
X157445707Y-99886067D01*
X157445706Y-99886065D01*
X157444284Y-99880757D01*
X157432092Y-99854610D01*
X157349849Y-99678238D01*
X157349846Y-99678233D01*
X157347523Y-99673251D01*
X157251509Y-99536129D01*
X157219357Y-99490211D01*
X157219355Y-99490208D01*
X157216198Y-99485700D01*
X157054300Y-99323802D01*
X157049792Y-99320645D01*
X157049789Y-99320643D01*
X156971611Y-99265902D01*
X156866749Y-99192477D01*
X156861767Y-99190154D01*
X156861762Y-99190151D01*
X156827543Y-99174195D01*
X156774258Y-99127278D01*
X156754797Y-99059001D01*
X156775339Y-98991041D01*
X156827543Y-98945805D01*
X156861762Y-98929849D01*
X156861767Y-98929846D01*
X156866749Y-98927523D01*
X157009555Y-98827529D01*
X157049789Y-98799357D01*
X157049792Y-98799355D01*
X157054300Y-98796198D01*
X157216198Y-98634300D01*
X157225998Y-98620305D01*
X157287611Y-98532312D01*
X157347523Y-98446749D01*
X157349846Y-98441767D01*
X157349849Y-98441762D01*
X157441961Y-98244225D01*
X157441961Y-98244224D01*
X157444284Y-98239243D01*
X157454150Y-98202425D01*
X157502119Y-98023402D01*
X157502119Y-98023400D01*
X157503543Y-98018087D01*
X157523498Y-97790000D01*
X157503543Y-97561913D01*
X157497593Y-97539707D01*
X157445707Y-97346067D01*
X157445706Y-97346065D01*
X157444284Y-97340757D01*
X157432092Y-97314610D01*
X157349849Y-97138238D01*
X157349846Y-97138233D01*
X157347523Y-97133251D01*
X157251509Y-96996129D01*
X157219357Y-96950211D01*
X157219355Y-96950208D01*
X157216198Y-96945700D01*
X157054300Y-96783802D01*
X157049792Y-96780645D01*
X157049789Y-96780643D01*
X156971611Y-96725902D01*
X156866749Y-96652477D01*
X156861767Y-96650154D01*
X156861762Y-96650151D01*
X156827543Y-96634195D01*
X156774258Y-96587278D01*
X156754797Y-96519001D01*
X156775339Y-96451041D01*
X156827543Y-96405805D01*
X156861762Y-96389849D01*
X156861767Y-96389846D01*
X156866749Y-96387523D01*
X157009555Y-96287529D01*
X157049789Y-96259357D01*
X157049792Y-96259355D01*
X157054300Y-96256198D01*
X157216198Y-96094300D01*
X157225998Y-96080305D01*
X157287611Y-95992312D01*
X157347523Y-95906749D01*
X157349846Y-95901767D01*
X157349849Y-95901762D01*
X157441961Y-95704225D01*
X157441961Y-95704224D01*
X157444284Y-95699243D01*
X157454150Y-95662425D01*
X157502119Y-95483402D01*
X157502119Y-95483400D01*
X157503543Y-95478087D01*
X157523498Y-95250000D01*
X157503543Y-95021913D01*
X157497593Y-94999707D01*
X157445707Y-94806067D01*
X157445706Y-94806065D01*
X157444284Y-94800757D01*
X157432092Y-94774610D01*
X157349849Y-94598238D01*
X157349846Y-94598233D01*
X157347523Y-94593251D01*
X157251509Y-94456129D01*
X157219357Y-94410211D01*
X157219355Y-94410208D01*
X157216198Y-94405700D01*
X157054300Y-94243802D01*
X157049792Y-94240645D01*
X157049789Y-94240643D01*
X156971611Y-94185902D01*
X156866749Y-94112477D01*
X156861767Y-94110154D01*
X156861762Y-94110151D01*
X156827543Y-94094195D01*
X156774258Y-94047278D01*
X156754797Y-93979001D01*
X156775339Y-93911041D01*
X156827543Y-93865805D01*
X156861762Y-93849849D01*
X156861767Y-93849846D01*
X156866749Y-93847523D01*
X157009555Y-93747529D01*
X157049789Y-93719357D01*
X157049792Y-93719355D01*
X157054300Y-93716198D01*
X157216198Y-93554300D01*
X157225998Y-93540305D01*
X157287611Y-93452312D01*
X157347523Y-93366749D01*
X157349846Y-93361767D01*
X157349849Y-93361762D01*
X157441961Y-93164225D01*
X157441961Y-93164224D01*
X157444284Y-93159243D01*
X157454150Y-93122425D01*
X157502119Y-92943402D01*
X157502119Y-92943400D01*
X157503543Y-92938087D01*
X157523498Y-92710000D01*
X157503543Y-92481913D01*
X157497593Y-92459707D01*
X157445707Y-92266067D01*
X157445706Y-92266065D01*
X157444284Y-92260757D01*
X157432092Y-92234610D01*
X157349849Y-92058238D01*
X157349846Y-92058233D01*
X157347523Y-92053251D01*
X157251509Y-91916129D01*
X157219357Y-91870211D01*
X157219355Y-91870208D01*
X157216198Y-91865700D01*
X157054300Y-91703802D01*
X157049792Y-91700645D01*
X157049789Y-91700643D01*
X156971611Y-91645902D01*
X156866749Y-91572477D01*
X156861767Y-91570154D01*
X156861762Y-91570151D01*
X156827543Y-91554195D01*
X156774258Y-91507278D01*
X156754797Y-91439001D01*
X156775339Y-91371041D01*
X156827543Y-91325805D01*
X156861762Y-91309849D01*
X156861767Y-91309846D01*
X156866749Y-91307523D01*
X157009555Y-91207529D01*
X157049789Y-91179357D01*
X157049792Y-91179355D01*
X157054300Y-91176198D01*
X157216198Y-91014300D01*
X157225998Y-91000305D01*
X157287611Y-90912312D01*
X157347523Y-90826749D01*
X157349846Y-90821767D01*
X157349849Y-90821762D01*
X157441961Y-90624225D01*
X157441961Y-90624224D01*
X157444284Y-90619243D01*
X157454150Y-90582425D01*
X157502119Y-90403402D01*
X157502119Y-90403400D01*
X157503543Y-90398087D01*
X157523498Y-90170000D01*
X157503543Y-89941913D01*
X157497593Y-89919707D01*
X157445707Y-89726067D01*
X157445706Y-89726065D01*
X157444284Y-89720757D01*
X157432092Y-89694610D01*
X157349849Y-89518238D01*
X157349846Y-89518233D01*
X157347523Y-89513251D01*
X157251509Y-89376129D01*
X157219357Y-89330211D01*
X157219355Y-89330208D01*
X157216198Y-89325700D01*
X157054300Y-89163802D01*
X157049792Y-89160645D01*
X157049789Y-89160643D01*
X156971611Y-89105902D01*
X156866749Y-89032477D01*
X156861767Y-89030154D01*
X156861762Y-89030151D01*
X156827543Y-89014195D01*
X156774258Y-88967278D01*
X156754797Y-88899001D01*
X156775339Y-88831041D01*
X156827543Y-88785805D01*
X156861762Y-88769849D01*
X156861767Y-88769846D01*
X156866749Y-88767523D01*
X157009555Y-88667529D01*
X157049789Y-88639357D01*
X157049792Y-88639355D01*
X157054300Y-88636198D01*
X157216198Y-88474300D01*
X157225998Y-88460305D01*
X157287611Y-88372312D01*
X157347523Y-88286749D01*
X157349846Y-88281767D01*
X157349849Y-88281762D01*
X157441961Y-88084225D01*
X157441961Y-88084224D01*
X157444284Y-88079243D01*
X157454150Y-88042425D01*
X157502119Y-87863402D01*
X157502119Y-87863400D01*
X157503543Y-87858087D01*
X157523498Y-87630000D01*
X157503543Y-87401913D01*
X157497593Y-87379707D01*
X157445707Y-87186067D01*
X157445706Y-87186065D01*
X157444284Y-87180757D01*
X157432092Y-87154610D01*
X157349849Y-86978238D01*
X157349846Y-86978233D01*
X157347523Y-86973251D01*
X157251509Y-86836129D01*
X157219357Y-86790211D01*
X157219355Y-86790208D01*
X157216198Y-86785700D01*
X157054300Y-86623802D01*
X157049792Y-86620645D01*
X157049789Y-86620643D01*
X156971611Y-86565902D01*
X156866749Y-86492477D01*
X156861767Y-86490154D01*
X156861762Y-86490151D01*
X156827543Y-86474195D01*
X156774258Y-86427278D01*
X156754797Y-86359001D01*
X156775339Y-86291041D01*
X156827543Y-86245805D01*
X156861762Y-86229849D01*
X156861767Y-86229846D01*
X156866749Y-86227523D01*
X157009555Y-86127529D01*
X157049789Y-86099357D01*
X157049792Y-86099355D01*
X157054300Y-86096198D01*
X157216198Y-85934300D01*
X157225998Y-85920305D01*
X157287611Y-85832312D01*
X157347523Y-85746749D01*
X157349846Y-85741767D01*
X157349849Y-85741762D01*
X157441961Y-85544225D01*
X157441961Y-85544224D01*
X157444284Y-85539243D01*
X157454150Y-85502425D01*
X157502119Y-85323402D01*
X157502119Y-85323400D01*
X157503543Y-85318087D01*
X157523498Y-85090000D01*
X157503543Y-84861913D01*
X157497593Y-84839707D01*
X157445707Y-84646067D01*
X157445706Y-84646065D01*
X157444284Y-84640757D01*
X157432092Y-84614610D01*
X157349849Y-84438238D01*
X157349846Y-84438233D01*
X157347523Y-84433251D01*
X157251509Y-84296129D01*
X157219357Y-84250211D01*
X157219355Y-84250208D01*
X157216198Y-84245700D01*
X157054300Y-84083802D01*
X157049792Y-84080645D01*
X157049789Y-84080643D01*
X156971611Y-84025902D01*
X156866749Y-83952477D01*
X156861767Y-83950154D01*
X156861762Y-83950151D01*
X156827543Y-83934195D01*
X156774258Y-83887278D01*
X156754797Y-83819001D01*
X156775339Y-83751041D01*
X156827543Y-83705805D01*
X156861762Y-83689849D01*
X156861767Y-83689846D01*
X156866749Y-83687523D01*
X157009555Y-83587529D01*
X157049789Y-83559357D01*
X157049792Y-83559355D01*
X157054300Y-83556198D01*
X157216198Y-83394300D01*
X157225998Y-83380305D01*
X157287611Y-83292312D01*
X157347523Y-83206749D01*
X157349846Y-83201767D01*
X157349849Y-83201762D01*
X157441961Y-83004225D01*
X157441961Y-83004224D01*
X157444284Y-82999243D01*
X157454150Y-82962425D01*
X157502119Y-82783402D01*
X157502119Y-82783400D01*
X157503543Y-82778087D01*
X157523498Y-82550000D01*
X157503543Y-82321913D01*
X157497593Y-82299707D01*
X157445707Y-82106067D01*
X157445706Y-82106065D01*
X157444284Y-82100757D01*
X157432092Y-82074610D01*
X157349849Y-81898238D01*
X157349846Y-81898233D01*
X157347523Y-81893251D01*
X157251509Y-81756129D01*
X157219357Y-81710211D01*
X157219355Y-81710208D01*
X157216198Y-81705700D01*
X157054300Y-81543802D01*
X157049792Y-81540645D01*
X157049789Y-81540643D01*
X156971611Y-81485902D01*
X156866749Y-81412477D01*
X156861767Y-81410154D01*
X156861762Y-81410151D01*
X156827543Y-81394195D01*
X156774258Y-81347278D01*
X156754797Y-81279001D01*
X156775339Y-81211041D01*
X156827543Y-81165805D01*
X156861762Y-81149849D01*
X156861767Y-81149846D01*
X156866749Y-81147523D01*
X157000069Y-81054171D01*
X157049789Y-81019357D01*
X157049792Y-81019355D01*
X157054300Y-81016198D01*
X157216198Y-80854300D01*
X157225998Y-80840305D01*
X157287611Y-80752312D01*
X157347523Y-80666749D01*
X157349846Y-80661767D01*
X157349849Y-80661762D01*
X157441961Y-80464225D01*
X157441961Y-80464224D01*
X157444284Y-80459243D01*
X157454150Y-80422425D01*
X157502119Y-80243402D01*
X157502119Y-80243400D01*
X157503543Y-80238087D01*
X157523498Y-80010000D01*
X157503543Y-79781913D01*
X157502119Y-79776598D01*
X157445707Y-79566067D01*
X157445706Y-79566065D01*
X157444284Y-79560757D01*
X157355713Y-79370814D01*
X157349849Y-79358238D01*
X157349846Y-79358233D01*
X157347523Y-79353251D01*
X157228260Y-79182926D01*
X157219357Y-79170211D01*
X157219355Y-79170208D01*
X157216198Y-79165700D01*
X157054300Y-79003802D01*
X157049792Y-79000645D01*
X157049789Y-79000643D01*
X156971611Y-78945902D01*
X156866749Y-78872477D01*
X156861767Y-78870154D01*
X156861762Y-78870151D01*
X156827543Y-78854195D01*
X156774258Y-78807278D01*
X156754797Y-78739001D01*
X156775339Y-78671041D01*
X156827543Y-78625805D01*
X156861762Y-78609849D01*
X156861767Y-78609846D01*
X156866749Y-78607523D01*
X157009555Y-78507529D01*
X157049789Y-78479357D01*
X157049792Y-78479355D01*
X157054300Y-78476198D01*
X157216198Y-78314300D01*
X157225998Y-78300305D01*
X157287611Y-78212312D01*
X157347523Y-78126749D01*
X157349846Y-78121767D01*
X157349849Y-78121762D01*
X157441961Y-77924225D01*
X157441961Y-77924224D01*
X157444284Y-77919243D01*
X157454150Y-77882425D01*
X157502119Y-77703402D01*
X157502119Y-77703400D01*
X157503543Y-77698087D01*
X157523498Y-77470000D01*
X157503543Y-77241913D01*
X157497593Y-77219707D01*
X157445707Y-77026067D01*
X157445706Y-77026065D01*
X157444284Y-77020757D01*
X157432092Y-76994610D01*
X157349849Y-76818238D01*
X157349846Y-76818233D01*
X157347523Y-76813251D01*
X157251509Y-76676129D01*
X157219357Y-76630211D01*
X157219355Y-76630208D01*
X157216198Y-76625700D01*
X157054300Y-76463802D01*
X157049792Y-76460645D01*
X157049789Y-76460643D01*
X156971611Y-76405902D01*
X156866749Y-76332477D01*
X156861767Y-76330154D01*
X156861762Y-76330151D01*
X156826951Y-76313919D01*
X156773666Y-76267002D01*
X156754205Y-76198725D01*
X156774747Y-76130765D01*
X156826951Y-76085529D01*
X156861511Y-76069414D01*
X156871007Y-76063931D01*
X157049467Y-75938972D01*
X157057875Y-75931916D01*
X157211916Y-75777875D01*
X157218972Y-75769467D01*
X157343931Y-75591007D01*
X157349414Y-75581511D01*
X157441490Y-75384053D01*
X157445236Y-75373761D01*
X157491394Y-75201497D01*
X157491058Y-75187401D01*
X157483116Y-75184000D01*
X154942033Y-75184000D01*
X154928502Y-75187973D01*
X154927273Y-75196522D01*
X154974764Y-75373761D01*
X154978510Y-75384053D01*
X155070586Y-75581511D01*
X155076069Y-75591007D01*
X155201028Y-75769467D01*
X155208084Y-75777875D01*
X155362125Y-75931916D01*
X155370533Y-75938972D01*
X155548993Y-76063931D01*
X155558489Y-76069414D01*
X155593049Y-76085529D01*
X155646334Y-76132446D01*
X155665795Y-76200723D01*
X155645253Y-76268683D01*
X155593049Y-76313919D01*
X155558238Y-76330151D01*
X155558233Y-76330154D01*
X155553251Y-76332477D01*
X155448389Y-76405902D01*
X155370211Y-76460643D01*
X155370208Y-76460645D01*
X155365700Y-76463802D01*
X155203802Y-76625700D01*
X155200645Y-76630208D01*
X155200643Y-76630211D01*
X155168491Y-76676129D01*
X155072477Y-76813251D01*
X155070154Y-76818233D01*
X155070151Y-76818238D01*
X154987908Y-76994610D01*
X154975716Y-77020757D01*
X154974294Y-77026065D01*
X154974293Y-77026067D01*
X154922407Y-77219707D01*
X154916457Y-77241913D01*
X154896502Y-77470000D01*
X154916457Y-77698087D01*
X154917881Y-77703400D01*
X154917881Y-77703402D01*
X154965851Y-77882425D01*
X154975716Y-77919243D01*
X154978039Y-77924224D01*
X154978039Y-77924225D01*
X155070151Y-78121762D01*
X155070154Y-78121767D01*
X155072477Y-78126749D01*
X155132389Y-78212312D01*
X155194003Y-78300305D01*
X155203802Y-78314300D01*
X155365700Y-78476198D01*
X155370208Y-78479355D01*
X155370211Y-78479357D01*
X155410445Y-78507529D01*
X155553251Y-78607523D01*
X155558233Y-78609846D01*
X155558238Y-78609849D01*
X155592457Y-78625805D01*
X155645742Y-78672722D01*
X155665203Y-78740999D01*
X155644661Y-78808959D01*
X155592457Y-78854195D01*
X155558238Y-78870151D01*
X155558233Y-78870154D01*
X155553251Y-78872477D01*
X155448389Y-78945902D01*
X155370211Y-79000643D01*
X155370208Y-79000645D01*
X155365700Y-79003802D01*
X155203802Y-79165700D01*
X155200645Y-79170208D01*
X155200643Y-79170211D01*
X155191740Y-79182926D01*
X155072477Y-79353251D01*
X155070154Y-79358233D01*
X155070151Y-79358238D01*
X155064287Y-79370814D01*
X154975716Y-79560757D01*
X154974294Y-79566065D01*
X154974293Y-79566067D01*
X154917881Y-79776598D01*
X154916457Y-79781913D01*
X154896502Y-80010000D01*
X154916457Y-80238087D01*
X154917881Y-80243400D01*
X154917881Y-80243402D01*
X154965851Y-80422425D01*
X154975716Y-80459243D01*
X154978039Y-80464224D01*
X154978039Y-80464225D01*
X155070151Y-80661762D01*
X155070154Y-80661767D01*
X155072477Y-80666749D01*
X155132389Y-80752312D01*
X155194003Y-80840305D01*
X155203802Y-80854300D01*
X155365700Y-81016198D01*
X155370208Y-81019355D01*
X155370211Y-81019357D01*
X155419931Y-81054171D01*
X155553251Y-81147523D01*
X155558233Y-81149846D01*
X155558238Y-81149849D01*
X155592457Y-81165805D01*
X155645742Y-81212722D01*
X155665203Y-81280999D01*
X155644661Y-81348959D01*
X155592457Y-81394195D01*
X155558238Y-81410151D01*
X155558233Y-81410154D01*
X155553251Y-81412477D01*
X155448389Y-81485902D01*
X155370211Y-81540643D01*
X155370208Y-81540645D01*
X155365700Y-81543802D01*
X155203802Y-81705700D01*
X155200645Y-81710208D01*
X155200643Y-81710211D01*
X155168491Y-81756129D01*
X155072477Y-81893251D01*
X155070154Y-81898233D01*
X155070151Y-81898238D01*
X154987908Y-82074610D01*
X154975716Y-82100757D01*
X154974294Y-82106065D01*
X154974293Y-82106067D01*
X154922407Y-82299707D01*
X154916457Y-82321913D01*
X154896502Y-82550000D01*
X154916457Y-82778087D01*
X154917881Y-82783400D01*
X154917881Y-82783402D01*
X154965851Y-82962425D01*
X154975716Y-82999243D01*
X154978039Y-83004224D01*
X154978039Y-83004225D01*
X155070151Y-83201762D01*
X155070154Y-83201767D01*
X155072477Y-83206749D01*
X155132389Y-83292312D01*
X155194003Y-83380305D01*
X155203802Y-83394300D01*
X155365700Y-83556198D01*
X155370208Y-83559355D01*
X155370211Y-83559357D01*
X155410445Y-83587529D01*
X155553251Y-83687523D01*
X155558233Y-83689846D01*
X155558238Y-83689849D01*
X155592457Y-83705805D01*
X155645742Y-83752722D01*
X155665203Y-83820999D01*
X155644661Y-83888959D01*
X155592457Y-83934195D01*
X155558238Y-83950151D01*
X155558233Y-83950154D01*
X155553251Y-83952477D01*
X155448389Y-84025902D01*
X155370211Y-84080643D01*
X155370208Y-84080645D01*
X155365700Y-84083802D01*
X155203802Y-84245700D01*
X155200645Y-84250208D01*
X155200643Y-84250211D01*
X155168491Y-84296129D01*
X155072477Y-84433251D01*
X155070154Y-84438233D01*
X155070151Y-84438238D01*
X154987908Y-84614610D01*
X154975716Y-84640757D01*
X154974294Y-84646065D01*
X154974293Y-84646067D01*
X154922407Y-84839707D01*
X154916457Y-84861913D01*
X154896502Y-85090000D01*
X154916457Y-85318087D01*
X154917881Y-85323400D01*
X154917881Y-85323402D01*
X154965851Y-85502425D01*
X154975716Y-85539243D01*
X154978039Y-85544224D01*
X154978039Y-85544225D01*
X155070151Y-85741762D01*
X155070154Y-85741767D01*
X155072477Y-85746749D01*
X155132389Y-85832312D01*
X155194003Y-85920305D01*
X155203802Y-85934300D01*
X155365700Y-86096198D01*
X155370208Y-86099355D01*
X155370211Y-86099357D01*
X155410445Y-86127529D01*
X155553251Y-86227523D01*
X155558233Y-86229846D01*
X155558238Y-86229849D01*
X155592457Y-86245805D01*
X155645742Y-86292722D01*
X155665203Y-86360999D01*
X155644661Y-86428959D01*
X155592457Y-86474195D01*
X155558238Y-86490151D01*
X155558233Y-86490154D01*
X155553251Y-86492477D01*
X155448389Y-86565902D01*
X155370211Y-86620643D01*
X155370208Y-86620645D01*
X155365700Y-86623802D01*
X155203802Y-86785700D01*
X155200645Y-86790208D01*
X155200643Y-86790211D01*
X155168491Y-86836129D01*
X155072477Y-86973251D01*
X155070154Y-86978233D01*
X155070151Y-86978238D01*
X154987908Y-87154610D01*
X154975716Y-87180757D01*
X154974294Y-87186065D01*
X154974293Y-87186067D01*
X154922407Y-87379707D01*
X154916457Y-87401913D01*
X154896502Y-87630000D01*
X154916457Y-87858087D01*
X154917881Y-87863400D01*
X154917881Y-87863402D01*
X154965851Y-88042425D01*
X154975716Y-88079243D01*
X154978039Y-88084224D01*
X154978039Y-88084225D01*
X155070151Y-88281762D01*
X155070154Y-88281767D01*
X155072477Y-88286749D01*
X155132389Y-88372312D01*
X155194003Y-88460305D01*
X155203802Y-88474300D01*
X155365700Y-88636198D01*
X155370208Y-88639355D01*
X155370211Y-88639357D01*
X155410445Y-88667529D01*
X155553251Y-88767523D01*
X155558233Y-88769846D01*
X155558238Y-88769849D01*
X155592457Y-88785805D01*
X155645742Y-88832722D01*
X155665203Y-88900999D01*
X155644661Y-88968959D01*
X155592457Y-89014195D01*
X155558238Y-89030151D01*
X155558233Y-89030154D01*
X155553251Y-89032477D01*
X155448389Y-89105902D01*
X155370211Y-89160643D01*
X155370208Y-89160645D01*
X155365700Y-89163802D01*
X155203802Y-89325700D01*
X155200645Y-89330208D01*
X155200643Y-89330211D01*
X155168491Y-89376129D01*
X155072477Y-89513251D01*
X155070154Y-89518233D01*
X155070151Y-89518238D01*
X154987908Y-89694610D01*
X154975716Y-89720757D01*
X154974294Y-89726065D01*
X154974293Y-89726067D01*
X154922407Y-89919707D01*
X154916457Y-89941913D01*
X154896502Y-90170000D01*
X154916457Y-90398087D01*
X154917881Y-90403400D01*
X154917881Y-90403402D01*
X154965851Y-90582425D01*
X154975716Y-90619243D01*
X154978039Y-90624224D01*
X154978039Y-90624225D01*
X155070151Y-90821762D01*
X155070154Y-90821767D01*
X155072477Y-90826749D01*
X155132389Y-90912312D01*
X155194003Y-91000305D01*
X155203802Y-91014300D01*
X155365700Y-91176198D01*
X155370208Y-91179355D01*
X155370211Y-91179357D01*
X155410445Y-91207529D01*
X155553251Y-91307523D01*
X155558233Y-91309846D01*
X155558238Y-91309849D01*
X155592457Y-91325805D01*
X155645742Y-91372722D01*
X155665203Y-91440999D01*
X155644661Y-91508959D01*
X155592457Y-91554195D01*
X155558238Y-91570151D01*
X155558233Y-91570154D01*
X155553251Y-91572477D01*
X155448389Y-91645902D01*
X155370211Y-91700643D01*
X155370208Y-91700645D01*
X155365700Y-91703802D01*
X155203802Y-91865700D01*
X155200645Y-91870208D01*
X155200643Y-91870211D01*
X155168491Y-91916129D01*
X155072477Y-92053251D01*
X155070154Y-92058233D01*
X155070151Y-92058238D01*
X154987908Y-92234610D01*
X154975716Y-92260757D01*
X154974294Y-92266065D01*
X154974293Y-92266067D01*
X154922407Y-92459707D01*
X154916457Y-92481913D01*
X154896502Y-92710000D01*
X154916457Y-92938087D01*
X154917881Y-92943400D01*
X154917881Y-92943402D01*
X154965851Y-93122425D01*
X154975716Y-93159243D01*
X154978039Y-93164224D01*
X154978039Y-93164225D01*
X155070151Y-93361762D01*
X155070154Y-93361767D01*
X155072477Y-93366749D01*
X155132389Y-93452312D01*
X155194003Y-93540305D01*
X155203802Y-93554300D01*
X155365700Y-93716198D01*
X155370208Y-93719355D01*
X155370211Y-93719357D01*
X155410445Y-93747529D01*
X155553251Y-93847523D01*
X155558233Y-93849846D01*
X155558238Y-93849849D01*
X155592457Y-93865805D01*
X155645742Y-93912722D01*
X155665203Y-93980999D01*
X155644661Y-94048959D01*
X155592457Y-94094195D01*
X155558238Y-94110151D01*
X155558233Y-94110154D01*
X155553251Y-94112477D01*
X155448389Y-94185902D01*
X155370211Y-94240643D01*
X155370208Y-94240645D01*
X155365700Y-94243802D01*
X155203802Y-94405700D01*
X155200645Y-94410208D01*
X155200643Y-94410211D01*
X155168491Y-94456129D01*
X155072477Y-94593251D01*
X155070154Y-94598233D01*
X155070151Y-94598238D01*
X154987908Y-94774610D01*
X154975716Y-94800757D01*
X154974294Y-94806065D01*
X154974293Y-94806067D01*
X154922407Y-94999707D01*
X154916457Y-95021913D01*
X154896502Y-95250000D01*
X154916457Y-95478087D01*
X154917881Y-95483400D01*
X154917881Y-95483402D01*
X154965851Y-95662425D01*
X154975716Y-95699243D01*
X154978039Y-95704224D01*
X154978039Y-95704225D01*
X155070151Y-95901762D01*
X155070154Y-95901767D01*
X155072477Y-95906749D01*
X155132389Y-95992312D01*
X155194003Y-96080305D01*
X155203802Y-96094300D01*
X155365700Y-96256198D01*
X155370208Y-96259355D01*
X155370211Y-96259357D01*
X155410445Y-96287529D01*
X155553251Y-96387523D01*
X155558233Y-96389846D01*
X155558238Y-96389849D01*
X155592457Y-96405805D01*
X155645742Y-96452722D01*
X155665203Y-96520999D01*
X155644661Y-96588959D01*
X155592457Y-96634195D01*
X155558238Y-96650151D01*
X155558233Y-96650154D01*
X155553251Y-96652477D01*
X155448389Y-96725902D01*
X155370211Y-96780643D01*
X155370208Y-96780645D01*
X155365700Y-96783802D01*
X155203802Y-96945700D01*
X155200645Y-96950208D01*
X155200643Y-96950211D01*
X155168491Y-96996129D01*
X155072477Y-97133251D01*
X155070154Y-97138233D01*
X155070151Y-97138238D01*
X154987908Y-97314610D01*
X154975716Y-97340757D01*
X154974294Y-97346065D01*
X154974293Y-97346067D01*
X154922407Y-97539707D01*
X154916457Y-97561913D01*
X154896502Y-97790000D01*
X154916457Y-98018087D01*
X154917881Y-98023400D01*
X154917881Y-98023402D01*
X154965851Y-98202425D01*
X154975716Y-98239243D01*
X154978039Y-98244224D01*
X154978039Y-98244225D01*
X155070151Y-98441762D01*
X155070154Y-98441767D01*
X155072477Y-98446749D01*
X155132389Y-98532312D01*
X155194003Y-98620305D01*
X155203802Y-98634300D01*
X155365700Y-98796198D01*
X155370208Y-98799355D01*
X155370211Y-98799357D01*
X155410445Y-98827529D01*
X155553251Y-98927523D01*
X155558233Y-98929846D01*
X155558238Y-98929849D01*
X155592457Y-98945805D01*
X155645742Y-98992722D01*
X155665203Y-99060999D01*
X155644661Y-99128959D01*
X155592457Y-99174195D01*
X155558238Y-99190151D01*
X155558233Y-99190154D01*
X155553251Y-99192477D01*
X155448389Y-99265902D01*
X155370211Y-99320643D01*
X155370208Y-99320645D01*
X155365700Y-99323802D01*
X155203802Y-99485700D01*
X155200645Y-99490208D01*
X155200643Y-99490211D01*
X155168491Y-99536129D01*
X155072477Y-99673251D01*
X155070154Y-99678233D01*
X155070151Y-99678238D01*
X154987908Y-99854610D01*
X154975716Y-99880757D01*
X154974294Y-99886065D01*
X154974293Y-99886067D01*
X154922407Y-100079707D01*
X154916457Y-100101913D01*
X154896502Y-100330000D01*
X154916457Y-100558087D01*
X154917881Y-100563400D01*
X154917881Y-100563402D01*
X154965851Y-100742425D01*
X154975716Y-100779243D01*
X154978039Y-100784224D01*
X154978039Y-100784225D01*
X155070151Y-100981762D01*
X155070154Y-100981767D01*
X155072477Y-100986749D01*
X155132389Y-101072312D01*
X155194003Y-101160305D01*
X155203802Y-101174300D01*
X155365700Y-101336198D01*
X155370208Y-101339355D01*
X155370211Y-101339357D01*
X155410445Y-101367529D01*
X155553251Y-101467523D01*
X155558233Y-101469846D01*
X155558238Y-101469849D01*
X155592457Y-101485805D01*
X155645742Y-101532722D01*
X155665203Y-101600999D01*
X155644661Y-101668959D01*
X155592457Y-101714195D01*
X155558238Y-101730151D01*
X155558233Y-101730154D01*
X155553251Y-101732477D01*
X155448389Y-101805902D01*
X155370211Y-101860643D01*
X155370208Y-101860645D01*
X155365700Y-101863802D01*
X155203802Y-102025700D01*
X155200645Y-102030208D01*
X155200643Y-102030211D01*
X155168491Y-102076129D01*
X155072477Y-102213251D01*
X155070154Y-102218233D01*
X155070151Y-102218238D01*
X154987908Y-102394610D01*
X154975716Y-102420757D01*
X154974294Y-102426065D01*
X154974293Y-102426067D01*
X154922407Y-102619707D01*
X154916457Y-102641913D01*
X154896502Y-102870000D01*
X154916457Y-103098087D01*
X154917881Y-103103400D01*
X154917881Y-103103402D01*
X154965851Y-103282425D01*
X154975716Y-103319243D01*
X154978039Y-103324224D01*
X154978039Y-103324225D01*
X155070151Y-103521762D01*
X155070154Y-103521767D01*
X155072477Y-103526749D01*
X155132389Y-103612312D01*
X155194003Y-103700305D01*
X155203802Y-103714300D01*
X155365700Y-103876198D01*
X155370208Y-103879355D01*
X155370211Y-103879357D01*
X155410445Y-103907529D01*
X155553251Y-104007523D01*
X155558233Y-104009846D01*
X155558238Y-104009849D01*
X155592457Y-104025805D01*
X155645742Y-104072722D01*
X155665203Y-104140999D01*
X155644661Y-104208959D01*
X155592457Y-104254195D01*
X155558238Y-104270151D01*
X155558233Y-104270154D01*
X155553251Y-104272477D01*
X155448389Y-104345902D01*
X155370211Y-104400643D01*
X155370208Y-104400645D01*
X155365700Y-104403802D01*
X155203802Y-104565700D01*
X155200645Y-104570208D01*
X155200643Y-104570211D01*
X155168491Y-104616129D01*
X155072477Y-104753251D01*
X155070154Y-104758233D01*
X155070151Y-104758238D01*
X154987908Y-104934610D01*
X154975716Y-104960757D01*
X154974294Y-104966065D01*
X154974293Y-104966067D01*
X154922407Y-105159707D01*
X154916457Y-105181913D01*
X154896502Y-105410000D01*
X154916457Y-105638087D01*
X154917881Y-105643400D01*
X154917881Y-105643402D01*
X154965851Y-105822425D01*
X154975716Y-105859243D01*
X154978039Y-105864224D01*
X154978039Y-105864225D01*
X155070151Y-106061762D01*
X155070154Y-106061767D01*
X155072477Y-106066749D01*
X155132389Y-106152312D01*
X155194003Y-106240305D01*
X155203802Y-106254300D01*
X155365700Y-106416198D01*
X155370208Y-106419355D01*
X155370211Y-106419357D01*
X155415649Y-106451173D01*
X155553251Y-106547523D01*
X155558233Y-106549846D01*
X155558238Y-106549849D01*
X155592457Y-106565805D01*
X155645742Y-106612722D01*
X155665203Y-106680999D01*
X155644661Y-106748959D01*
X155592457Y-106794195D01*
X155558238Y-106810151D01*
X155558233Y-106810154D01*
X155553251Y-106812477D01*
X155505220Y-106846109D01*
X155370211Y-106940643D01*
X155370208Y-106940645D01*
X155365700Y-106943802D01*
X155203802Y-107105700D01*
X155200645Y-107110208D01*
X155200643Y-107110211D01*
X155153142Y-107178050D01*
X155072477Y-107293251D01*
X155070154Y-107298233D01*
X155070151Y-107298238D01*
X154985719Y-107479305D01*
X154975716Y-107500757D01*
X154974294Y-107506065D01*
X154974293Y-107506067D01*
X154917881Y-107716598D01*
X154916457Y-107721913D01*
X154896502Y-107950000D01*
X154916457Y-108178087D01*
X154917881Y-108183400D01*
X154917881Y-108183402D01*
X154931155Y-108232939D01*
X154975716Y-108399243D01*
X154978039Y-108404224D01*
X154978039Y-108404225D01*
X155070151Y-108601762D01*
X155070154Y-108601767D01*
X155072477Y-108606749D01*
X155107157Y-108656277D01*
X155179078Y-108758990D01*
X155203802Y-108794300D01*
X155365700Y-108956198D01*
X155370208Y-108959355D01*
X155370211Y-108959357D01*
X155410445Y-108987529D01*
X155553251Y-109087523D01*
X155558233Y-109089846D01*
X155558238Y-109089849D01*
X155593529Y-109106305D01*
X155646814Y-109153222D01*
X155666275Y-109221500D01*
X155645733Y-109289460D01*
X155591710Y-109335525D01*
X155540279Y-109346500D01*
X141639721Y-109346500D01*
X141571600Y-109326498D01*
X141525107Y-109272842D01*
X141515003Y-109202568D01*
X141544497Y-109137988D01*
X141586471Y-109106305D01*
X141621762Y-109089849D01*
X141621767Y-109089846D01*
X141626749Y-109087523D01*
X141769555Y-108987529D01*
X141809789Y-108959357D01*
X141809792Y-108959355D01*
X141814300Y-108956198D01*
X141976198Y-108794300D01*
X142000923Y-108758990D01*
X142072843Y-108656277D01*
X142107523Y-108606749D01*
X142109846Y-108601767D01*
X142109849Y-108601762D01*
X142201961Y-108404225D01*
X142201961Y-108404224D01*
X142204284Y-108399243D01*
X142248846Y-108232939D01*
X142262119Y-108183402D01*
X142262119Y-108183400D01*
X142263543Y-108178087D01*
X142283498Y-107950000D01*
X142263543Y-107721913D01*
X142262119Y-107716598D01*
X142205707Y-107506067D01*
X142205706Y-107506065D01*
X142204284Y-107500757D01*
X142194281Y-107479305D01*
X142109849Y-107298238D01*
X142109846Y-107298233D01*
X142107523Y-107293251D01*
X142026858Y-107178050D01*
X141979357Y-107110211D01*
X141979355Y-107110208D01*
X141976198Y-107105700D01*
X141814300Y-106943802D01*
X141809792Y-106940645D01*
X141809789Y-106940643D01*
X141674780Y-106846109D01*
X141626749Y-106812477D01*
X141621767Y-106810154D01*
X141621762Y-106810151D01*
X141587543Y-106794195D01*
X141534258Y-106747278D01*
X141514797Y-106679001D01*
X141535339Y-106611041D01*
X141587543Y-106565805D01*
X141621762Y-106549849D01*
X141621767Y-106549846D01*
X141626749Y-106547523D01*
X141764351Y-106451173D01*
X141809789Y-106419357D01*
X141809792Y-106419355D01*
X141814300Y-106416198D01*
X141976198Y-106254300D01*
X141985998Y-106240305D01*
X142047611Y-106152312D01*
X142107523Y-106066749D01*
X142109846Y-106061767D01*
X142109849Y-106061762D01*
X142201961Y-105864225D01*
X142201961Y-105864224D01*
X142204284Y-105859243D01*
X142214150Y-105822425D01*
X142262119Y-105643402D01*
X142262119Y-105643400D01*
X142263543Y-105638087D01*
X142283498Y-105410000D01*
X142263543Y-105181913D01*
X142257593Y-105159707D01*
X142205707Y-104966067D01*
X142205706Y-104966065D01*
X142204284Y-104960757D01*
X142192092Y-104934610D01*
X142109849Y-104758238D01*
X142109846Y-104758233D01*
X142107523Y-104753251D01*
X142011509Y-104616129D01*
X141979357Y-104570211D01*
X141979355Y-104570208D01*
X141976198Y-104565700D01*
X141814300Y-104403802D01*
X141809792Y-104400645D01*
X141809789Y-104400643D01*
X141731611Y-104345902D01*
X141626749Y-104272477D01*
X141621767Y-104270154D01*
X141621762Y-104270151D01*
X141587543Y-104254195D01*
X141534258Y-104207278D01*
X141514797Y-104139001D01*
X141535339Y-104071041D01*
X141587543Y-104025805D01*
X141621762Y-104009849D01*
X141621767Y-104009846D01*
X141626749Y-104007523D01*
X141769555Y-103907529D01*
X141809789Y-103879357D01*
X141809792Y-103879355D01*
X141814300Y-103876198D01*
X141976198Y-103714300D01*
X141985998Y-103700305D01*
X142047611Y-103612312D01*
X142107523Y-103526749D01*
X142109846Y-103521767D01*
X142109849Y-103521762D01*
X142201961Y-103324225D01*
X142201961Y-103324224D01*
X142204284Y-103319243D01*
X142214150Y-103282425D01*
X142262119Y-103103402D01*
X142262119Y-103103400D01*
X142263543Y-103098087D01*
X142283498Y-102870000D01*
X142263543Y-102641913D01*
X142257593Y-102619707D01*
X142205707Y-102426067D01*
X142205706Y-102426065D01*
X142204284Y-102420757D01*
X142192092Y-102394610D01*
X142109849Y-102218238D01*
X142109846Y-102218233D01*
X142107523Y-102213251D01*
X142011509Y-102076129D01*
X141979357Y-102030211D01*
X141979355Y-102030208D01*
X141976198Y-102025700D01*
X141814300Y-101863802D01*
X141809792Y-101860645D01*
X141809789Y-101860643D01*
X141731611Y-101805902D01*
X141626749Y-101732477D01*
X141621767Y-101730154D01*
X141621762Y-101730151D01*
X141587543Y-101714195D01*
X141534258Y-101667278D01*
X141514797Y-101599001D01*
X141535339Y-101531041D01*
X141587543Y-101485805D01*
X141621762Y-101469849D01*
X141621767Y-101469846D01*
X141626749Y-101467523D01*
X141769555Y-101367529D01*
X141809789Y-101339357D01*
X141809792Y-101339355D01*
X141814300Y-101336198D01*
X141976198Y-101174300D01*
X141985998Y-101160305D01*
X142047611Y-101072312D01*
X142107523Y-100986749D01*
X142109846Y-100981767D01*
X142109849Y-100981762D01*
X142201961Y-100784225D01*
X142201961Y-100784224D01*
X142204284Y-100779243D01*
X142214150Y-100742425D01*
X142262119Y-100563402D01*
X142262119Y-100563400D01*
X142263543Y-100558087D01*
X142283498Y-100330000D01*
X142263543Y-100101913D01*
X142257593Y-100079707D01*
X142205707Y-99886067D01*
X142205706Y-99886065D01*
X142204284Y-99880757D01*
X142192092Y-99854610D01*
X142109849Y-99678238D01*
X142109846Y-99678233D01*
X142107523Y-99673251D01*
X142011509Y-99536129D01*
X141979357Y-99490211D01*
X141979355Y-99490208D01*
X141976198Y-99485700D01*
X141814300Y-99323802D01*
X141809792Y-99320645D01*
X141809789Y-99320643D01*
X141731611Y-99265902D01*
X141626749Y-99192477D01*
X141621767Y-99190154D01*
X141621762Y-99190151D01*
X141587543Y-99174195D01*
X141534258Y-99127278D01*
X141514797Y-99059001D01*
X141535339Y-98991041D01*
X141587543Y-98945805D01*
X141621762Y-98929849D01*
X141621767Y-98929846D01*
X141626749Y-98927523D01*
X141769555Y-98827529D01*
X141809789Y-98799357D01*
X141809792Y-98799355D01*
X141814300Y-98796198D01*
X141976198Y-98634300D01*
X141985998Y-98620305D01*
X142047611Y-98532312D01*
X142107523Y-98446749D01*
X142109846Y-98441767D01*
X142109849Y-98441762D01*
X142201961Y-98244225D01*
X142201961Y-98244224D01*
X142204284Y-98239243D01*
X142214150Y-98202425D01*
X142262119Y-98023402D01*
X142262119Y-98023400D01*
X142263543Y-98018087D01*
X142283498Y-97790000D01*
X142263543Y-97561913D01*
X142257593Y-97539707D01*
X142205707Y-97346067D01*
X142205706Y-97346065D01*
X142204284Y-97340757D01*
X142192092Y-97314610D01*
X142109849Y-97138238D01*
X142109846Y-97138233D01*
X142107523Y-97133251D01*
X142011509Y-96996129D01*
X141979357Y-96950211D01*
X141979355Y-96950208D01*
X141976198Y-96945700D01*
X141814300Y-96783802D01*
X141809792Y-96780645D01*
X141809789Y-96780643D01*
X141731611Y-96725902D01*
X141626749Y-96652477D01*
X141621767Y-96650154D01*
X141621762Y-96650151D01*
X141587543Y-96634195D01*
X141534258Y-96587278D01*
X141514797Y-96519001D01*
X141535339Y-96451041D01*
X141587543Y-96405805D01*
X141621762Y-96389849D01*
X141621767Y-96389846D01*
X141626749Y-96387523D01*
X141769555Y-96287529D01*
X141809789Y-96259357D01*
X141809792Y-96259355D01*
X141814300Y-96256198D01*
X141976198Y-96094300D01*
X141985998Y-96080305D01*
X142047611Y-95992312D01*
X142107523Y-95906749D01*
X142109846Y-95901767D01*
X142109849Y-95901762D01*
X142201961Y-95704225D01*
X142201961Y-95704224D01*
X142204284Y-95699243D01*
X142214150Y-95662425D01*
X142262119Y-95483402D01*
X142262119Y-95483400D01*
X142263543Y-95478087D01*
X142283498Y-95250000D01*
X142263543Y-95021913D01*
X142257593Y-94999707D01*
X142205707Y-94806067D01*
X142205706Y-94806065D01*
X142204284Y-94800757D01*
X142192092Y-94774610D01*
X142109849Y-94598238D01*
X142109846Y-94598233D01*
X142107523Y-94593251D01*
X142011509Y-94456129D01*
X141979357Y-94410211D01*
X141979355Y-94410208D01*
X141976198Y-94405700D01*
X141814300Y-94243802D01*
X141809792Y-94240645D01*
X141809789Y-94240643D01*
X141731611Y-94185902D01*
X141626749Y-94112477D01*
X141621767Y-94110154D01*
X141621762Y-94110151D01*
X141587543Y-94094195D01*
X141534258Y-94047278D01*
X141514797Y-93979001D01*
X141535339Y-93911041D01*
X141587543Y-93865805D01*
X141621762Y-93849849D01*
X141621767Y-93849846D01*
X141626749Y-93847523D01*
X141769555Y-93747529D01*
X141809789Y-93719357D01*
X141809792Y-93719355D01*
X141814300Y-93716198D01*
X141976198Y-93554300D01*
X141985998Y-93540305D01*
X142047611Y-93452312D01*
X142107523Y-93366749D01*
X142109846Y-93361767D01*
X142109849Y-93361762D01*
X142201961Y-93164225D01*
X142201961Y-93164224D01*
X142204284Y-93159243D01*
X142214150Y-93122425D01*
X142262119Y-92943402D01*
X142262119Y-92943400D01*
X142263543Y-92938087D01*
X142283498Y-92710000D01*
X142263543Y-92481913D01*
X142257593Y-92459707D01*
X142205707Y-92266067D01*
X142205706Y-92266065D01*
X142204284Y-92260757D01*
X142192092Y-92234610D01*
X142109849Y-92058238D01*
X142109846Y-92058233D01*
X142107523Y-92053251D01*
X142011509Y-91916129D01*
X141979357Y-91870211D01*
X141979355Y-91870208D01*
X141976198Y-91865700D01*
X141814300Y-91703802D01*
X141809792Y-91700645D01*
X141809789Y-91700643D01*
X141731611Y-91645902D01*
X141626749Y-91572477D01*
X141621767Y-91570154D01*
X141621762Y-91570151D01*
X141587543Y-91554195D01*
X141534258Y-91507278D01*
X141514797Y-91439001D01*
X141535339Y-91371041D01*
X141587543Y-91325805D01*
X141621762Y-91309849D01*
X141621767Y-91309846D01*
X141626749Y-91307523D01*
X141769555Y-91207529D01*
X141809789Y-91179357D01*
X141809792Y-91179355D01*
X141814300Y-91176198D01*
X141976198Y-91014300D01*
X141985998Y-91000305D01*
X142047611Y-90912312D01*
X142107523Y-90826749D01*
X142109846Y-90821767D01*
X142109849Y-90821762D01*
X142201961Y-90624225D01*
X142201961Y-90624224D01*
X142204284Y-90619243D01*
X142214150Y-90582425D01*
X142262119Y-90403402D01*
X142262119Y-90403400D01*
X142263543Y-90398087D01*
X142283498Y-90170000D01*
X142263543Y-89941913D01*
X142257593Y-89919707D01*
X142205707Y-89726067D01*
X142205706Y-89726065D01*
X142204284Y-89720757D01*
X142192092Y-89694610D01*
X142109849Y-89518238D01*
X142109846Y-89518233D01*
X142107523Y-89513251D01*
X142011509Y-89376129D01*
X141979357Y-89330211D01*
X141979355Y-89330208D01*
X141976198Y-89325700D01*
X141814300Y-89163802D01*
X141809792Y-89160645D01*
X141809789Y-89160643D01*
X141731611Y-89105902D01*
X141626749Y-89032477D01*
X141621767Y-89030154D01*
X141621762Y-89030151D01*
X141587543Y-89014195D01*
X141534258Y-88967278D01*
X141514797Y-88899001D01*
X141535339Y-88831041D01*
X141587543Y-88785805D01*
X141621762Y-88769849D01*
X141621767Y-88769846D01*
X141626749Y-88767523D01*
X141769555Y-88667529D01*
X141809789Y-88639357D01*
X141809792Y-88639355D01*
X141814300Y-88636198D01*
X141976198Y-88474300D01*
X141985998Y-88460305D01*
X142047611Y-88372312D01*
X142107523Y-88286749D01*
X142109846Y-88281767D01*
X142109849Y-88281762D01*
X142201961Y-88084225D01*
X142201961Y-88084224D01*
X142204284Y-88079243D01*
X142214150Y-88042425D01*
X142262119Y-87863402D01*
X142262119Y-87863400D01*
X142263543Y-87858087D01*
X142283498Y-87630000D01*
X142263543Y-87401913D01*
X142257593Y-87379707D01*
X142205707Y-87186067D01*
X142205706Y-87186065D01*
X142204284Y-87180757D01*
X142192092Y-87154610D01*
X142109849Y-86978238D01*
X142109846Y-86978233D01*
X142107523Y-86973251D01*
X142011509Y-86836129D01*
X141979357Y-86790211D01*
X141979355Y-86790208D01*
X141976198Y-86785700D01*
X141814300Y-86623802D01*
X141809792Y-86620645D01*
X141809789Y-86620643D01*
X141731611Y-86565902D01*
X141626749Y-86492477D01*
X141621767Y-86490154D01*
X141621762Y-86490151D01*
X141587543Y-86474195D01*
X141534258Y-86427278D01*
X141514797Y-86359001D01*
X141535339Y-86291041D01*
X141587543Y-86245805D01*
X141621762Y-86229849D01*
X141621767Y-86229846D01*
X141626749Y-86227523D01*
X141769555Y-86127529D01*
X141809789Y-86099357D01*
X141809792Y-86099355D01*
X141814300Y-86096198D01*
X141976198Y-85934300D01*
X141985998Y-85920305D01*
X142047611Y-85832312D01*
X142107523Y-85746749D01*
X142109846Y-85741767D01*
X142109849Y-85741762D01*
X142201961Y-85544225D01*
X142201961Y-85544224D01*
X142204284Y-85539243D01*
X142214150Y-85502425D01*
X142262119Y-85323402D01*
X142262119Y-85323400D01*
X142263543Y-85318087D01*
X142283498Y-85090000D01*
X142263543Y-84861913D01*
X142257593Y-84839707D01*
X142205707Y-84646067D01*
X142205706Y-84646065D01*
X142204284Y-84640757D01*
X142192092Y-84614610D01*
X142109849Y-84438238D01*
X142109846Y-84438233D01*
X142107523Y-84433251D01*
X142011509Y-84296129D01*
X141979357Y-84250211D01*
X141979355Y-84250208D01*
X141976198Y-84245700D01*
X141814300Y-84083802D01*
X141809792Y-84080645D01*
X141809789Y-84080643D01*
X141731611Y-84025902D01*
X141626749Y-83952477D01*
X141621767Y-83950154D01*
X141621762Y-83950151D01*
X141587543Y-83934195D01*
X141534258Y-83887278D01*
X141514797Y-83819001D01*
X141535339Y-83751041D01*
X141587543Y-83705805D01*
X141621762Y-83689849D01*
X141621767Y-83689846D01*
X141626749Y-83687523D01*
X141769555Y-83587529D01*
X141809789Y-83559357D01*
X141809792Y-83559355D01*
X141814300Y-83556198D01*
X141976198Y-83394300D01*
X141985998Y-83380305D01*
X142047611Y-83292312D01*
X142107523Y-83206749D01*
X142109846Y-83201767D01*
X142109849Y-83201762D01*
X142201961Y-83004225D01*
X142201961Y-83004224D01*
X142204284Y-82999243D01*
X142214150Y-82962425D01*
X142262119Y-82783402D01*
X142262119Y-82783400D01*
X142263543Y-82778087D01*
X142283498Y-82550000D01*
X142263543Y-82321913D01*
X142257593Y-82299707D01*
X142205707Y-82106067D01*
X142205706Y-82106065D01*
X142204284Y-82100757D01*
X142192092Y-82074610D01*
X142109849Y-81898238D01*
X142109846Y-81898233D01*
X142107523Y-81893251D01*
X142011509Y-81756129D01*
X141979357Y-81710211D01*
X141979355Y-81710208D01*
X141976198Y-81705700D01*
X141814300Y-81543802D01*
X141809792Y-81540645D01*
X141809789Y-81540643D01*
X141731611Y-81485902D01*
X141626749Y-81412477D01*
X141621767Y-81410154D01*
X141621762Y-81410151D01*
X141586951Y-81393919D01*
X141533666Y-81347002D01*
X141514205Y-81278725D01*
X141534747Y-81210765D01*
X141586951Y-81165529D01*
X141621511Y-81149414D01*
X141631007Y-81143931D01*
X141809467Y-81018972D01*
X141817875Y-81011916D01*
X141971916Y-80857875D01*
X141978972Y-80849467D01*
X142103931Y-80671007D01*
X142109414Y-80661511D01*
X142201490Y-80464053D01*
X142205236Y-80453761D01*
X142251394Y-80281497D01*
X142251058Y-80267401D01*
X142243116Y-80264000D01*
X139702033Y-80264000D01*
X139688502Y-80267973D01*
X139687273Y-80276522D01*
X139734764Y-80453761D01*
X139738510Y-80464053D01*
X139830586Y-80661511D01*
X139836069Y-80671007D01*
X139961028Y-80849467D01*
X139968084Y-80857875D01*
X140122125Y-81011916D01*
X140130533Y-81018972D01*
X140308993Y-81143931D01*
X140318489Y-81149414D01*
X140353049Y-81165529D01*
X140406334Y-81212446D01*
X140425795Y-81280723D01*
X140405253Y-81348683D01*
X140353049Y-81393919D01*
X140318238Y-81410151D01*
X140318233Y-81410154D01*
X140313251Y-81412477D01*
X140208389Y-81485902D01*
X140130211Y-81540643D01*
X140130208Y-81540645D01*
X140125700Y-81543802D01*
X139963802Y-81705700D01*
X139960645Y-81710208D01*
X139960643Y-81710211D01*
X139928491Y-81756129D01*
X139832477Y-81893251D01*
X139830154Y-81898233D01*
X139830151Y-81898238D01*
X139747908Y-82074610D01*
X139735716Y-82100757D01*
X139734294Y-82106065D01*
X139734293Y-82106067D01*
X139682407Y-82299707D01*
X139676457Y-82321913D01*
X139656502Y-82550000D01*
X139676457Y-82778087D01*
X139677881Y-82783400D01*
X139677881Y-82783402D01*
X139725851Y-82962425D01*
X139735716Y-82999243D01*
X139738039Y-83004224D01*
X139738039Y-83004225D01*
X139830151Y-83201762D01*
X139830154Y-83201767D01*
X139832477Y-83206749D01*
X139892389Y-83292312D01*
X139954003Y-83380305D01*
X139963802Y-83394300D01*
X140125700Y-83556198D01*
X140130208Y-83559355D01*
X140130211Y-83559357D01*
X140170445Y-83587529D01*
X140313251Y-83687523D01*
X140318233Y-83689846D01*
X140318238Y-83689849D01*
X140352457Y-83705805D01*
X140405742Y-83752722D01*
X140425203Y-83820999D01*
X140404661Y-83888959D01*
X140352457Y-83934195D01*
X140318238Y-83950151D01*
X140318233Y-83950154D01*
X140313251Y-83952477D01*
X140208389Y-84025902D01*
X140130211Y-84080643D01*
X140130208Y-84080645D01*
X140125700Y-84083802D01*
X139963802Y-84245700D01*
X139960645Y-84250208D01*
X139960643Y-84250211D01*
X139928491Y-84296129D01*
X139832477Y-84433251D01*
X139830154Y-84438233D01*
X139830151Y-84438238D01*
X139747908Y-84614610D01*
X139735716Y-84640757D01*
X139734294Y-84646065D01*
X139734293Y-84646067D01*
X139682407Y-84839707D01*
X139676457Y-84861913D01*
X139656502Y-85090000D01*
X139676457Y-85318087D01*
X139677881Y-85323400D01*
X139677881Y-85323402D01*
X139725851Y-85502425D01*
X139735716Y-85539243D01*
X139738039Y-85544224D01*
X139738039Y-85544225D01*
X139830151Y-85741762D01*
X139830154Y-85741767D01*
X139832477Y-85746749D01*
X139892389Y-85832312D01*
X139954003Y-85920305D01*
X139963802Y-85934300D01*
X140125700Y-86096198D01*
X140130208Y-86099355D01*
X140130211Y-86099357D01*
X140170445Y-86127529D01*
X140313251Y-86227523D01*
X140318233Y-86229846D01*
X140318238Y-86229849D01*
X140352457Y-86245805D01*
X140405742Y-86292722D01*
X140425203Y-86360999D01*
X140404661Y-86428959D01*
X140352457Y-86474195D01*
X140318238Y-86490151D01*
X140318233Y-86490154D01*
X140313251Y-86492477D01*
X140208389Y-86565902D01*
X140130211Y-86620643D01*
X140130208Y-86620645D01*
X140125700Y-86623802D01*
X139963802Y-86785700D01*
X139960645Y-86790208D01*
X139960643Y-86790211D01*
X139928491Y-86836129D01*
X139832477Y-86973251D01*
X139830154Y-86978233D01*
X139830151Y-86978238D01*
X139747908Y-87154610D01*
X139735716Y-87180757D01*
X139734294Y-87186065D01*
X139734293Y-87186067D01*
X139682407Y-87379707D01*
X139676457Y-87401913D01*
X139656502Y-87630000D01*
X139676457Y-87858087D01*
X139677881Y-87863400D01*
X139677881Y-87863402D01*
X139725851Y-88042425D01*
X139735716Y-88079243D01*
X139738039Y-88084224D01*
X139738039Y-88084225D01*
X139830151Y-88281762D01*
X139830154Y-88281767D01*
X139832477Y-88286749D01*
X139892389Y-88372312D01*
X139954003Y-88460305D01*
X139963802Y-88474300D01*
X140125700Y-88636198D01*
X140130208Y-88639355D01*
X140130211Y-88639357D01*
X140170445Y-88667529D01*
X140313251Y-88767523D01*
X140318233Y-88769846D01*
X140318238Y-88769849D01*
X140352457Y-88785805D01*
X140405742Y-88832722D01*
X140425203Y-88900999D01*
X140404661Y-88968959D01*
X140352457Y-89014195D01*
X140318238Y-89030151D01*
X140318233Y-89030154D01*
X140313251Y-89032477D01*
X140208389Y-89105902D01*
X140130211Y-89160643D01*
X140130208Y-89160645D01*
X140125700Y-89163802D01*
X139963802Y-89325700D01*
X139960645Y-89330208D01*
X139960643Y-89330211D01*
X139928491Y-89376129D01*
X139832477Y-89513251D01*
X139830154Y-89518233D01*
X139830151Y-89518238D01*
X139747908Y-89694610D01*
X139735716Y-89720757D01*
X139734294Y-89726065D01*
X139734293Y-89726067D01*
X139682407Y-89919707D01*
X139676457Y-89941913D01*
X139656502Y-90170000D01*
X139676457Y-90398087D01*
X139677881Y-90403400D01*
X139677881Y-90403402D01*
X139725851Y-90582425D01*
X139735716Y-90619243D01*
X139738039Y-90624224D01*
X139738039Y-90624225D01*
X139830151Y-90821762D01*
X139830154Y-90821767D01*
X139832477Y-90826749D01*
X139892389Y-90912312D01*
X139954003Y-91000305D01*
X139963802Y-91014300D01*
X140125700Y-91176198D01*
X140130208Y-91179355D01*
X140130211Y-91179357D01*
X140170445Y-91207529D01*
X140313251Y-91307523D01*
X140318233Y-91309846D01*
X140318238Y-91309849D01*
X140352457Y-91325805D01*
X140405742Y-91372722D01*
X140425203Y-91440999D01*
X140404661Y-91508959D01*
X140352457Y-91554195D01*
X140318238Y-91570151D01*
X140318233Y-91570154D01*
X140313251Y-91572477D01*
X140208389Y-91645902D01*
X140130211Y-91700643D01*
X140130208Y-91700645D01*
X140125700Y-91703802D01*
X139963802Y-91865700D01*
X139960645Y-91870208D01*
X139960643Y-91870211D01*
X139928491Y-91916129D01*
X139832477Y-92053251D01*
X139830154Y-92058233D01*
X139830151Y-92058238D01*
X139747908Y-92234610D01*
X139735716Y-92260757D01*
X139734294Y-92266065D01*
X139734293Y-92266067D01*
X139682407Y-92459707D01*
X139676457Y-92481913D01*
X139656502Y-92710000D01*
X139676457Y-92938087D01*
X139677881Y-92943400D01*
X139677881Y-92943402D01*
X139725851Y-93122425D01*
X139735716Y-93159243D01*
X139738039Y-93164224D01*
X139738039Y-93164225D01*
X139830151Y-93361762D01*
X139830154Y-93361767D01*
X139832477Y-93366749D01*
X139892389Y-93452312D01*
X139954003Y-93540305D01*
X139963802Y-93554300D01*
X140125700Y-93716198D01*
X140130208Y-93719355D01*
X140130211Y-93719357D01*
X140170445Y-93747529D01*
X140313251Y-93847523D01*
X140318233Y-93849846D01*
X140318238Y-93849849D01*
X140352457Y-93865805D01*
X140405742Y-93912722D01*
X140425203Y-93980999D01*
X140404661Y-94048959D01*
X140352457Y-94094195D01*
X140318238Y-94110151D01*
X140318233Y-94110154D01*
X140313251Y-94112477D01*
X140208389Y-94185902D01*
X140130211Y-94240643D01*
X140130208Y-94240645D01*
X140125700Y-94243802D01*
X139963802Y-94405700D01*
X139960645Y-94410208D01*
X139960643Y-94410211D01*
X139928491Y-94456129D01*
X139832477Y-94593251D01*
X139830154Y-94598233D01*
X139830151Y-94598238D01*
X139747908Y-94774610D01*
X139735716Y-94800757D01*
X139734294Y-94806065D01*
X139734293Y-94806067D01*
X139682407Y-94999707D01*
X139676457Y-95021913D01*
X139656502Y-95250000D01*
X139676457Y-95478087D01*
X139677881Y-95483400D01*
X139677881Y-95483402D01*
X139725851Y-95662425D01*
X139735716Y-95699243D01*
X139738039Y-95704224D01*
X139738039Y-95704225D01*
X139830151Y-95901762D01*
X139830154Y-95901767D01*
X139832477Y-95906749D01*
X139892389Y-95992312D01*
X139954003Y-96080305D01*
X139963802Y-96094300D01*
X140125700Y-96256198D01*
X140130208Y-96259355D01*
X140130211Y-96259357D01*
X140170445Y-96287529D01*
X140313251Y-96387523D01*
X140318233Y-96389846D01*
X140318238Y-96389849D01*
X140352457Y-96405805D01*
X140405742Y-96452722D01*
X140425203Y-96520999D01*
X140404661Y-96588959D01*
X140352457Y-96634195D01*
X140318238Y-96650151D01*
X140318233Y-96650154D01*
X140313251Y-96652477D01*
X140208389Y-96725902D01*
X140130211Y-96780643D01*
X140130208Y-96780645D01*
X140125700Y-96783802D01*
X139963802Y-96945700D01*
X139960645Y-96950208D01*
X139960643Y-96950211D01*
X139928491Y-96996129D01*
X139832477Y-97133251D01*
X139830154Y-97138233D01*
X139830151Y-97138238D01*
X139747908Y-97314610D01*
X139735716Y-97340757D01*
X139734294Y-97346065D01*
X139734293Y-97346067D01*
X139682407Y-97539707D01*
X139676457Y-97561913D01*
X139656502Y-97790000D01*
X139676457Y-98018087D01*
X139677881Y-98023400D01*
X139677881Y-98023402D01*
X139725851Y-98202425D01*
X139735716Y-98239243D01*
X139738039Y-98244224D01*
X139738039Y-98244225D01*
X139830151Y-98441762D01*
X139830154Y-98441767D01*
X139832477Y-98446749D01*
X139892389Y-98532312D01*
X139954003Y-98620305D01*
X139963802Y-98634300D01*
X140125700Y-98796198D01*
X140130208Y-98799355D01*
X140130211Y-98799357D01*
X140170445Y-98827529D01*
X140313251Y-98927523D01*
X140318233Y-98929846D01*
X140318238Y-98929849D01*
X140352457Y-98945805D01*
X140405742Y-98992722D01*
X140425203Y-99060999D01*
X140404661Y-99128959D01*
X140352457Y-99174195D01*
X140318238Y-99190151D01*
X140318233Y-99190154D01*
X140313251Y-99192477D01*
X140208389Y-99265902D01*
X140130211Y-99320643D01*
X140130208Y-99320645D01*
X140125700Y-99323802D01*
X139963802Y-99485700D01*
X139960645Y-99490208D01*
X139960643Y-99490211D01*
X139928491Y-99536129D01*
X139832477Y-99673251D01*
X139830154Y-99678233D01*
X139830151Y-99678238D01*
X139747908Y-99854610D01*
X139735716Y-99880757D01*
X139734294Y-99886065D01*
X139734293Y-99886067D01*
X139682407Y-100079707D01*
X139676457Y-100101913D01*
X139656502Y-100330000D01*
X139676457Y-100558087D01*
X139677881Y-100563400D01*
X139677881Y-100563402D01*
X139725851Y-100742425D01*
X139735716Y-100779243D01*
X139738039Y-100784224D01*
X139738039Y-100784225D01*
X139830151Y-100981762D01*
X139830154Y-100981767D01*
X139832477Y-100986749D01*
X139892389Y-101072312D01*
X139954003Y-101160305D01*
X139963802Y-101174300D01*
X140125700Y-101336198D01*
X140130208Y-101339355D01*
X140130211Y-101339357D01*
X140170445Y-101367529D01*
X140313251Y-101467523D01*
X140318233Y-101469846D01*
X140318238Y-101469849D01*
X140352457Y-101485805D01*
X140405742Y-101532722D01*
X140425203Y-101600999D01*
X140404661Y-101668959D01*
X140352457Y-101714195D01*
X140318238Y-101730151D01*
X140318233Y-101730154D01*
X140313251Y-101732477D01*
X140208389Y-101805902D01*
X140130211Y-101860643D01*
X140130208Y-101860645D01*
X140125700Y-101863802D01*
X139963802Y-102025700D01*
X139960645Y-102030208D01*
X139960643Y-102030211D01*
X139928491Y-102076129D01*
X139832477Y-102213251D01*
X139830154Y-102218233D01*
X139830151Y-102218238D01*
X139747908Y-102394610D01*
X139735716Y-102420757D01*
X139734294Y-102426065D01*
X139734293Y-102426067D01*
X139682407Y-102619707D01*
X139676457Y-102641913D01*
X139656502Y-102870000D01*
X139676457Y-103098087D01*
X139677881Y-103103400D01*
X139677881Y-103103402D01*
X139725851Y-103282425D01*
X139735716Y-103319243D01*
X139738039Y-103324224D01*
X139738039Y-103324225D01*
X139830151Y-103521762D01*
X139830154Y-103521767D01*
X139832477Y-103526749D01*
X139892389Y-103612312D01*
X139954003Y-103700305D01*
X139963802Y-103714300D01*
X140125700Y-103876198D01*
X140130208Y-103879355D01*
X140130211Y-103879357D01*
X140170445Y-103907529D01*
X140313251Y-104007523D01*
X140318233Y-104009846D01*
X140318238Y-104009849D01*
X140352457Y-104025805D01*
X140405742Y-104072722D01*
X140425203Y-104140999D01*
X140404661Y-104208959D01*
X140352457Y-104254195D01*
X140318238Y-104270151D01*
X140318233Y-104270154D01*
X140313251Y-104272477D01*
X140208389Y-104345902D01*
X140130211Y-104400643D01*
X140130208Y-104400645D01*
X140125700Y-104403802D01*
X139963802Y-104565700D01*
X139960645Y-104570208D01*
X139960643Y-104570211D01*
X139928491Y-104616129D01*
X139832477Y-104753251D01*
X139830154Y-104758233D01*
X139830151Y-104758238D01*
X139747908Y-104934610D01*
X139735716Y-104960757D01*
X139734294Y-104966065D01*
X139734293Y-104966067D01*
X139682407Y-105159707D01*
X139676457Y-105181913D01*
X139656502Y-105410000D01*
X139676457Y-105638087D01*
X139677881Y-105643400D01*
X139677881Y-105643402D01*
X139725851Y-105822425D01*
X139735716Y-105859243D01*
X139738039Y-105864224D01*
X139738039Y-105864225D01*
X139830151Y-106061762D01*
X139830154Y-106061767D01*
X139832477Y-106066749D01*
X139892389Y-106152312D01*
X139954003Y-106240305D01*
X139963802Y-106254300D01*
X140125700Y-106416198D01*
X140130208Y-106419355D01*
X140130211Y-106419357D01*
X140175649Y-106451173D01*
X140313251Y-106547523D01*
X140318233Y-106549846D01*
X140318238Y-106549849D01*
X140352457Y-106565805D01*
X140405742Y-106612722D01*
X140425203Y-106680999D01*
X140404661Y-106748959D01*
X140352457Y-106794195D01*
X140318238Y-106810151D01*
X140318233Y-106810154D01*
X140313251Y-106812477D01*
X140265220Y-106846109D01*
X140130211Y-106940643D01*
X140130208Y-106940645D01*
X140125700Y-106943802D01*
X139963802Y-107105700D01*
X139960645Y-107110208D01*
X139960643Y-107110211D01*
X139913142Y-107178050D01*
X139832477Y-107293251D01*
X139830154Y-107298233D01*
X139830151Y-107298238D01*
X139745719Y-107479305D01*
X139735716Y-107500757D01*
X139734294Y-107506065D01*
X139734293Y-107506067D01*
X139677881Y-107716598D01*
X139676457Y-107721913D01*
X139656502Y-107950000D01*
X139676457Y-108178087D01*
X139677881Y-108183400D01*
X139677881Y-108183402D01*
X139691155Y-108232939D01*
X139735716Y-108399243D01*
X139738039Y-108404224D01*
X139738039Y-108404225D01*
X139830151Y-108601762D01*
X139830154Y-108601767D01*
X139832477Y-108606749D01*
X139867157Y-108656277D01*
X139939078Y-108758990D01*
X139963802Y-108794300D01*
X140125700Y-108956198D01*
X140130208Y-108959355D01*
X140130211Y-108959357D01*
X140170445Y-108987529D01*
X140313251Y-109087523D01*
X140318233Y-109089846D01*
X140318238Y-109089849D01*
X140353529Y-109106305D01*
X140406814Y-109153222D01*
X140426275Y-109221500D01*
X140405733Y-109289460D01*
X140351710Y-109335525D01*
X140300279Y-109346500D01*
X134125333Y-109346500D01*
X134057212Y-109326498D01*
X134010719Y-109272842D01*
X134000615Y-109202568D01*
X134030109Y-109137988D01*
X134052165Y-109117921D01*
X134080118Y-109097982D01*
X134229860Y-108991173D01*
X134261788Y-108959357D01*
X134373400Y-108848134D01*
X134388096Y-108833489D01*
X134419498Y-108789789D01*
X134515435Y-108656277D01*
X134518453Y-108652077D01*
X134538628Y-108611257D01*
X134615136Y-108456453D01*
X134615137Y-108456451D01*
X134617430Y-108451811D01*
X134682370Y-108238069D01*
X134711529Y-108016590D01*
X134713156Y-107950000D01*
X134694852Y-107727361D01*
X134640431Y-107510702D01*
X134551354Y-107305840D01*
X134430014Y-107118277D01*
X134279670Y-106953051D01*
X134275619Y-106949852D01*
X134275615Y-106949848D01*
X134108414Y-106817800D01*
X134108410Y-106817798D01*
X134104359Y-106814598D01*
X134063053Y-106791796D01*
X134013084Y-106741364D01*
X133998312Y-106671921D01*
X134023428Y-106605516D01*
X134050780Y-106578909D01*
X134099207Y-106544366D01*
X134229860Y-106451173D01*
X134261788Y-106419357D01*
X134384435Y-106297137D01*
X134388096Y-106293489D01*
X134419498Y-106249789D01*
X134515435Y-106116277D01*
X134518453Y-106112077D01*
X134538628Y-106071257D01*
X134615136Y-105916453D01*
X134615137Y-105916451D01*
X134617430Y-105911811D01*
X134682370Y-105698069D01*
X134711529Y-105476590D01*
X134713156Y-105410000D01*
X134694852Y-105187361D01*
X134640431Y-104970702D01*
X134551354Y-104765840D01*
X134430014Y-104578277D01*
X134279670Y-104413051D01*
X134275619Y-104409852D01*
X134275615Y-104409848D01*
X134108414Y-104277800D01*
X134108410Y-104277798D01*
X134104359Y-104274598D01*
X134063053Y-104251796D01*
X134013084Y-104201364D01*
X133998312Y-104131921D01*
X134023428Y-104065516D01*
X134050780Y-104038909D01*
X134099207Y-104004366D01*
X134229860Y-103911173D01*
X134261788Y-103879357D01*
X134384435Y-103757137D01*
X134388096Y-103753489D01*
X134419498Y-103709789D01*
X134515435Y-103576277D01*
X134518453Y-103572077D01*
X134538628Y-103531257D01*
X134615136Y-103376453D01*
X134615137Y-103376451D01*
X134617430Y-103371811D01*
X134682370Y-103158069D01*
X134711529Y-102936590D01*
X134713156Y-102870000D01*
X134694852Y-102647361D01*
X134640431Y-102430702D01*
X134551354Y-102225840D01*
X134430014Y-102038277D01*
X134279670Y-101873051D01*
X134275619Y-101869852D01*
X134275615Y-101869848D01*
X134108414Y-101737800D01*
X134108410Y-101737798D01*
X134104359Y-101734598D01*
X134063053Y-101711796D01*
X134013084Y-101661364D01*
X133998312Y-101591921D01*
X134023428Y-101525516D01*
X134050780Y-101498909D01*
X134099207Y-101464366D01*
X134229860Y-101371173D01*
X134261788Y-101339357D01*
X134384435Y-101217137D01*
X134388096Y-101213489D01*
X134419498Y-101169789D01*
X134515435Y-101036277D01*
X134518453Y-101032077D01*
X134538628Y-100991257D01*
X134615136Y-100836453D01*
X134615137Y-100836451D01*
X134617430Y-100831811D01*
X134682370Y-100618069D01*
X134711529Y-100396590D01*
X134713156Y-100330000D01*
X134694852Y-100107361D01*
X134640431Y-99890702D01*
X134551354Y-99685840D01*
X134430014Y-99498277D01*
X134279670Y-99333051D01*
X134275619Y-99329852D01*
X134275615Y-99329848D01*
X134108414Y-99197800D01*
X134108410Y-99197798D01*
X134104359Y-99194598D01*
X134063053Y-99171796D01*
X134013084Y-99121364D01*
X133998312Y-99051921D01*
X134023428Y-98985516D01*
X134050780Y-98958909D01*
X134099207Y-98924366D01*
X134229860Y-98831173D01*
X134261788Y-98799357D01*
X134384435Y-98677137D01*
X134388096Y-98673489D01*
X134419498Y-98629789D01*
X134515435Y-98496277D01*
X134518453Y-98492077D01*
X134538628Y-98451257D01*
X134615136Y-98296453D01*
X134615137Y-98296451D01*
X134617430Y-98291811D01*
X134682370Y-98078069D01*
X134711529Y-97856590D01*
X134713156Y-97790000D01*
X134694852Y-97567361D01*
X134640431Y-97350702D01*
X134551354Y-97145840D01*
X134430014Y-96958277D01*
X134279670Y-96793051D01*
X134275619Y-96789852D01*
X134275615Y-96789848D01*
X134108414Y-96657800D01*
X134108410Y-96657798D01*
X134104359Y-96654598D01*
X134063053Y-96631796D01*
X134013084Y-96581364D01*
X133998312Y-96511921D01*
X134023428Y-96445516D01*
X134050780Y-96418909D01*
X134099207Y-96384366D01*
X134229860Y-96291173D01*
X134261788Y-96259357D01*
X134384435Y-96137137D01*
X134388096Y-96133489D01*
X134419498Y-96089789D01*
X134515435Y-95956277D01*
X134518453Y-95952077D01*
X134538628Y-95911257D01*
X134615136Y-95756453D01*
X134615137Y-95756451D01*
X134617430Y-95751811D01*
X134682370Y-95538069D01*
X134711529Y-95316590D01*
X134713156Y-95250000D01*
X134694852Y-95027361D01*
X134640431Y-94810702D01*
X134551354Y-94605840D01*
X134430014Y-94418277D01*
X134279670Y-94253051D01*
X134275619Y-94249852D01*
X134275615Y-94249848D01*
X134108414Y-94117800D01*
X134108410Y-94117798D01*
X134104359Y-94114598D01*
X134063053Y-94091796D01*
X134013084Y-94041364D01*
X133998312Y-93971921D01*
X134023428Y-93905516D01*
X134050780Y-93878909D01*
X134099207Y-93844366D01*
X134229860Y-93751173D01*
X134261788Y-93719357D01*
X134384435Y-93597137D01*
X134388096Y-93593489D01*
X134419498Y-93549789D01*
X134515435Y-93416277D01*
X134518453Y-93412077D01*
X134538628Y-93371257D01*
X134615136Y-93216453D01*
X134615137Y-93216451D01*
X134617430Y-93211811D01*
X134682370Y-92998069D01*
X134711529Y-92776590D01*
X134713156Y-92710000D01*
X134694852Y-92487361D01*
X134640431Y-92270702D01*
X134551354Y-92065840D01*
X134430014Y-91878277D01*
X134279670Y-91713051D01*
X134275619Y-91709852D01*
X134275615Y-91709848D01*
X134108414Y-91577800D01*
X134108410Y-91577798D01*
X134104359Y-91574598D01*
X134063053Y-91551796D01*
X134013084Y-91501364D01*
X133998312Y-91431921D01*
X134023428Y-91365516D01*
X134050780Y-91338909D01*
X134099207Y-91304366D01*
X134229860Y-91211173D01*
X134261788Y-91179357D01*
X134384435Y-91057137D01*
X134388096Y-91053489D01*
X134419498Y-91009789D01*
X134515435Y-90876277D01*
X134518453Y-90872077D01*
X134538628Y-90831257D01*
X134615136Y-90676453D01*
X134615137Y-90676451D01*
X134617430Y-90671811D01*
X134682370Y-90458069D01*
X134711529Y-90236590D01*
X134713156Y-90170000D01*
X134694852Y-89947361D01*
X134640431Y-89730702D01*
X134551354Y-89525840D01*
X134430014Y-89338277D01*
X134279670Y-89173051D01*
X134275619Y-89169852D01*
X134275615Y-89169848D01*
X134108414Y-89037800D01*
X134108410Y-89037798D01*
X134104359Y-89034598D01*
X134063053Y-89011796D01*
X134013084Y-88961364D01*
X133998312Y-88891921D01*
X134023428Y-88825516D01*
X134050780Y-88798909D01*
X134099207Y-88764366D01*
X134229860Y-88671173D01*
X134261788Y-88639357D01*
X134384435Y-88517137D01*
X134388096Y-88513489D01*
X134419498Y-88469789D01*
X134515435Y-88336277D01*
X134518453Y-88332077D01*
X134538628Y-88291257D01*
X134615136Y-88136453D01*
X134615137Y-88136451D01*
X134617430Y-88131811D01*
X134682370Y-87918069D01*
X134711529Y-87696590D01*
X134713156Y-87630000D01*
X134694852Y-87407361D01*
X134640431Y-87190702D01*
X134551354Y-86985840D01*
X134430014Y-86798277D01*
X134279670Y-86633051D01*
X134275619Y-86629852D01*
X134275615Y-86629848D01*
X134108414Y-86497800D01*
X134108410Y-86497798D01*
X134104359Y-86494598D01*
X134063053Y-86471796D01*
X134013084Y-86421364D01*
X133998312Y-86351921D01*
X134023428Y-86285516D01*
X134050780Y-86258909D01*
X134099207Y-86224366D01*
X134229860Y-86131173D01*
X134261788Y-86099357D01*
X134384435Y-85977137D01*
X134388096Y-85973489D01*
X134419498Y-85929789D01*
X134515435Y-85796277D01*
X134518453Y-85792077D01*
X134538628Y-85751257D01*
X134615136Y-85596453D01*
X134615137Y-85596451D01*
X134617430Y-85591811D01*
X134682370Y-85378069D01*
X134711529Y-85156590D01*
X134713156Y-85090000D01*
X134694852Y-84867361D01*
X134640431Y-84650702D01*
X134551354Y-84445840D01*
X134430014Y-84258277D01*
X134279670Y-84093051D01*
X134275619Y-84089852D01*
X134275615Y-84089848D01*
X134108414Y-83957800D01*
X134108410Y-83957798D01*
X134104359Y-83954598D01*
X134063053Y-83931796D01*
X134013084Y-83881364D01*
X133998312Y-83811921D01*
X134023428Y-83745516D01*
X134050780Y-83718909D01*
X134099207Y-83684366D01*
X134229860Y-83591173D01*
X134261788Y-83559357D01*
X134384435Y-83437137D01*
X134388096Y-83433489D01*
X134419498Y-83389789D01*
X134515435Y-83256277D01*
X134518453Y-83252077D01*
X134538628Y-83211257D01*
X134615136Y-83056453D01*
X134615137Y-83056451D01*
X134617430Y-83051811D01*
X134682370Y-82838069D01*
X134711529Y-82616590D01*
X134713156Y-82550000D01*
X134694852Y-82327361D01*
X134640431Y-82110702D01*
X134551354Y-81905840D01*
X134430014Y-81718277D01*
X134279670Y-81553051D01*
X134275619Y-81549852D01*
X134275615Y-81549848D01*
X134108414Y-81417800D01*
X134108410Y-81417798D01*
X134104359Y-81414598D01*
X134062569Y-81391529D01*
X134012598Y-81341097D01*
X133997826Y-81271654D01*
X134022942Y-81205248D01*
X134050294Y-81178641D01*
X134225328Y-81053792D01*
X134233200Y-81047139D01*
X134384052Y-80896812D01*
X134390730Y-80888965D01*
X134515003Y-80716020D01*
X134520313Y-80707183D01*
X134614670Y-80516267D01*
X134618469Y-80506672D01*
X134680377Y-80302910D01*
X134682555Y-80292837D01*
X134683986Y-80281962D01*
X134681775Y-80267778D01*
X134668617Y-80264000D01*
X133222000Y-80264000D01*
X133153879Y-80243998D01*
X133107386Y-80190342D01*
X133096000Y-80138000D01*
X133096000Y-79882000D01*
X133116002Y-79813879D01*
X133169658Y-79767386D01*
X133222000Y-79756000D01*
X134668344Y-79756000D01*
X134681875Y-79752027D01*
X134683180Y-79742947D01*
X134641214Y-79575875D01*
X134637894Y-79566124D01*
X134552972Y-79370814D01*
X134548105Y-79361739D01*
X134432426Y-79182926D01*
X134426136Y-79174757D01*
X134282806Y-79017240D01*
X134275273Y-79010215D01*
X134108139Y-78878222D01*
X134099556Y-78872520D01*
X134062602Y-78852120D01*
X134012631Y-78801687D01*
X133997859Y-78732245D01*
X134022975Y-78665839D01*
X134050327Y-78639232D01*
X134073797Y-78622491D01*
X134229860Y-78511173D01*
X134261788Y-78479357D01*
X134384435Y-78357137D01*
X134388096Y-78353489D01*
X134419498Y-78309789D01*
X134515435Y-78176277D01*
X134518453Y-78172077D01*
X134538628Y-78131257D01*
X134615136Y-77976453D01*
X134615137Y-77976451D01*
X134617430Y-77971811D01*
X134682370Y-77758069D01*
X134711529Y-77536590D01*
X134713156Y-77470000D01*
X134694852Y-77247361D01*
X134640431Y-77030702D01*
X134551354Y-76825840D01*
X134430014Y-76638277D01*
X134279670Y-76473051D01*
X134275619Y-76469852D01*
X134275615Y-76469848D01*
X134108414Y-76337800D01*
X134108410Y-76337798D01*
X134104359Y-76334598D01*
X134063053Y-76311796D01*
X134013084Y-76261364D01*
X133998312Y-76191921D01*
X134023428Y-76125516D01*
X134050780Y-76098909D01*
X134099817Y-76063931D01*
X134229860Y-75971173D01*
X134261788Y-75939357D01*
X134384435Y-75817137D01*
X134388096Y-75813489D01*
X134419498Y-75769789D01*
X134515435Y-75636277D01*
X134518453Y-75632077D01*
X134538628Y-75591257D01*
X134615136Y-75436453D01*
X134615137Y-75436451D01*
X134617430Y-75431811D01*
X134682370Y-75218069D01*
X134711529Y-74996590D01*
X134713156Y-74930000D01*
X134694852Y-74707361D01*
X134640431Y-74490702D01*
X134551354Y-74285840D01*
X134489493Y-74190217D01*
X134432822Y-74102617D01*
X134432820Y-74102614D01*
X134430014Y-74098277D01*
X134410405Y-74076727D01*
X134282798Y-73936488D01*
X134251746Y-73872642D01*
X134260141Y-73802143D01*
X134305317Y-73747375D01*
X134331761Y-73733706D01*
X134438297Y-73693767D01*
X134446705Y-73690615D01*
X134563261Y-73603261D01*
X134650615Y-73486705D01*
X134701745Y-73350316D01*
X134708500Y-73288134D01*
X134708500Y-71491866D01*
X134701745Y-71429684D01*
X134650615Y-71293295D01*
X134622390Y-71255634D01*
X134576996Y-71195065D01*
X134552148Y-71128558D01*
X134567201Y-71059176D01*
X134617375Y-71008946D01*
X134677822Y-70993500D01*
X139739731Y-70993500D01*
X139807852Y-71013502D01*
G37*
%TD.AperFunction*%
%TD*%
M02*
