%TF.GenerationSoftware,KiCad,Pcbnew,(6.0.11-0)*%
%TF.CreationDate,2023-01-30T19:10:04-05:00*%
%TF.ProjectId,Nano-Breakout,4e616e6f-2d42-4726-9561-6b6f75742e6b,1.0.0*%
%TF.SameCoordinates,Original*%
%TF.FileFunction,Soldermask,Bot*%
%TF.FilePolarity,Negative*%
%FSLAX46Y46*%
G04 Gerber Fmt 4.6, Leading zero omitted, Abs format (unit mm)*
G04 Created by KiCad (PCBNEW (6.0.11-0)) date 2023-01-30 19:10:04*
%MOMM*%
%LPD*%
G01*
G04 APERTURE LIST*
%ADD10R,1.700000X1.700000*%
%ADD11O,1.700000X1.700000*%
%ADD12R,1.600000X1.600000*%
%ADD13O,1.600000X1.600000*%
G04 APERTURE END LIST*
D10*
%TO.C,J102*%
X163890000Y-107950000D03*
D11*
X163890000Y-105410000D03*
X163890000Y-102870000D03*
X163890000Y-100330000D03*
X163890000Y-97790000D03*
X163890000Y-95250000D03*
X163890000Y-92710000D03*
X163890000Y-90170000D03*
X163890000Y-87630000D03*
X163890000Y-85090000D03*
X163890000Y-82550000D03*
X163890000Y-80010000D03*
X163890000Y-77470000D03*
X163890000Y-74930000D03*
X163890000Y-72390000D03*
%TD*%
D12*
%TO.C,A101*%
X140970000Y-72390000D03*
D13*
X140970000Y-74930000D03*
X140970000Y-77470000D03*
X140970000Y-80010000D03*
X140970000Y-82550000D03*
X140970000Y-85090000D03*
X140970000Y-87630000D03*
X140970000Y-90170000D03*
X140970000Y-92710000D03*
X140970000Y-95250000D03*
X140970000Y-97790000D03*
X140970000Y-100330000D03*
X140970000Y-102870000D03*
X140970000Y-105410000D03*
X140970000Y-107950000D03*
X156210000Y-107950000D03*
X156210000Y-105410000D03*
X156210000Y-102870000D03*
X156210000Y-100330000D03*
X156210000Y-97790000D03*
X156210000Y-95250000D03*
X156210000Y-92710000D03*
X156210000Y-90170000D03*
X156210000Y-87630000D03*
X156210000Y-85090000D03*
X156210000Y-82550000D03*
X156210000Y-80010000D03*
X156210000Y-77470000D03*
X156210000Y-74930000D03*
X156210000Y-72390000D03*
%TD*%
D10*
%TO.C,J101*%
X133350000Y-72390000D03*
D11*
X133350000Y-74930000D03*
X133350000Y-77470000D03*
X133350000Y-80010000D03*
X133350000Y-82550000D03*
X133350000Y-85090000D03*
X133350000Y-87630000D03*
X133350000Y-90170000D03*
X133350000Y-92710000D03*
X133350000Y-95250000D03*
X133350000Y-97790000D03*
X133350000Y-100330000D03*
X133350000Y-102870000D03*
X133350000Y-105410000D03*
X133350000Y-107950000D03*
%TD*%
M02*
