M48
; DRILL file {KiCad (6.0.11-0)} date Monday, January 30, 2023 at 07:10:04 PM
; FORMAT={-:-/ absolute / inch / decimal}
; #@! TF.CreationDate,2023-01-30T19:10:04-05:00
; #@! TF.GenerationSoftware,Kicad,Pcbnew,(6.0.11-0)
; #@! TF.FileFunction,Plated,1,2,PTH
FMAT,2
INCH
; #@! TA.AperFunction,Plated,PTH,ComponentDrill
T1C0.0394
%
G90
G05
T1
X5.25Y-2.85
X5.25Y-2.95
X5.25Y-3.05
X5.25Y-3.15
X5.25Y-3.25
X5.25Y-3.35
X5.25Y-3.45
X5.25Y-3.55
X5.25Y-3.65
X5.25Y-3.75
X5.25Y-3.85
X5.25Y-3.95
X5.25Y-4.05
X5.25Y-4.15
X5.25Y-4.25
X5.55Y-2.85
X5.55Y-2.95
X5.55Y-3.05
X5.55Y-3.15
X5.55Y-3.25
X5.55Y-3.35
X5.55Y-3.45
X5.55Y-3.55
X5.55Y-3.65
X5.55Y-3.75
X5.55Y-3.85
X5.55Y-3.95
X5.55Y-4.05
X5.55Y-4.15
X5.55Y-4.25
X6.15Y-2.85
X6.15Y-2.95
X6.15Y-3.05
X6.15Y-3.15
X6.15Y-3.25
X6.15Y-3.35
X6.15Y-3.45
X6.15Y-3.55
X6.15Y-3.65
X6.15Y-3.75
X6.15Y-3.85
X6.15Y-3.95
X6.15Y-4.05
X6.15Y-4.15
X6.15Y-4.25
X6.4524Y-2.85
X6.4524Y-2.95
X6.4524Y-3.05
X6.4524Y-3.15
X6.4524Y-3.25
X6.4524Y-3.35
X6.4524Y-3.45
X6.4524Y-3.55
X6.4524Y-3.65
X6.4524Y-3.75
X6.4524Y-3.85
X6.4524Y-3.95
X6.4524Y-4.05
X6.4524Y-4.15
X6.4524Y-4.25
T0
M30
